<svg width="470" height="206" xmlns="http://www.w3.org/2000/svg">
 <!-- Created with Method Draw - http://github.com/duopixel/Method-Draw/ -->

 <g>
  <title>background</title>
  <rect fill="none" id="canvas_background" height="208" width="472" y="-1" x="-1"/>
  <g display="none" overflow="visible" y="0" x="0" height="100%" width="100%" id="canvasGrid">
   <rect fill="url(#gridpattern)" stroke-width="0" y="0" x="0" height="100%" width="100%"/>
  </g>
 </g>
 <g>
  <title>Layer 1</title>
  <!-- Created with Method Draw - http://github.com/duopixel/Method-Draw/ -->
  <g stroke="null" id="svg_263">
   <g stroke="null" transform="matrix(1.3087061561468696,0,0,1.2894971281145577,-1047.0394828752615,-970.8040506245015) " id="svg_260">
    <title stroke="null" transform="translate(0,-0.0999351516366005) translate(0,-0.0999351516366005) translate(0,-0.0999351516366005) translate(0,-0.0999351516366005) translate(0,-0.0999351516366005) translate(-27.57112693786621,-11.192736625671387) translate(27.31705665588379,11.438567161560059) translate(0.9551418423652649,0.1938740313053131) translate(0,0.09693701565265656) translate(0,-0.09693701565265656) translate(0,-0.09693701565265656) translate(0,0.04846850782632828) translate(0,0.04846850782632828) translate(0,0.04846850782632828) translate(0,-0.04846850782632828) translate(0,-0.04846850782632828) translate(0,-0.04846850782632828) translate(0,-0.04846850782632828) translate(0,-0.04846850782632828) translate(0,-0.04846850782632828) translate(0,-0.04846850782632828) translate(0,-0.04846850782632828) translate(0,-0.04846850782632828) translate(0,-0.04846850782632828) translate(0,-0.04846850782632828) translate(0,-0.04846850782632828) translate(0,-0.04846850782632828) translate(0,-0.04846850782632828) translate(0,-0.04846850782632828) translate(0,-0.04846850782632828) translate(0,-0.04846850782632828) translate(0,0.04846850782632828) translate(0,0.04846850782632828) translate(0,0.04846850782632828) translate(0,0.04846850782632828) translate(0,0.04846850782632828) translate(0,0.04846850782632828) translate(0,0.04846850782632828) translate(0,0.04846850782632828) translate(0,0.04846850782632828) translate(0,0.09693701565265656) translate(0,0.04846850782632828) translate(-120.72992706298828,-128.73236083984375) translate(-138.30453491210938,30.244348526000977) translate(1063.0400390625,0) translate(0,855.280029296875) ">background</title>
    <rect stroke="null" x="803.70665" y="755.53817" width="354" height="150" id="svg_258" fill="none"/>
    <g stroke="null" id="svg_257" display="none">
     <rect stroke="null" id="svg_261" width="640" height="480" x="805.70665" y="757.53817" stroke-width="0" fill="url(#gridpattern)"/>
    </g>
   </g>
   <g stroke="null" transform="matrix(1.3087061561468696,0,0,1.2894971281145577,-1047.0394828752615,-970.8040506245015) " id="svg_262">
    <title stroke="null" transform="translate(0.19693663716316223,0) translate(0,-0.0999351516366005) translate(0,-0.0999351516366005) translate(0,-0.0999351516366005) translate(0,-0.0999351516366005) translate(0,-0.0999351516366005) translate(-27.57112693786621,-11.192736625671387) translate(27.31705665588379,11.438567161560059) translate(0.9551418423652649,0.1938740313053131) translate(0,0.09693701565265656) translate(0,-0.09693701565265656) translate(0,-0.09693701565265656) translate(0,0.04846850782632828) translate(0,0.04846850782632828) translate(0,0.04846850782632828) translate(0,-0.04846850782632828) translate(0,-0.04846850782632828) translate(0,-0.04846850782632828) translate(0,-0.04846850782632828) translate(0,-0.04846850782632828) translate(0,-0.04846850782632828) translate(0,-0.04846850782632828) translate(0,-0.04846850782632828) translate(0,-0.04846850782632828) translate(0,-0.04846850782632828) translate(0,-0.04846850782632828) translate(0,-0.04846850782632828) translate(0,-0.04846850782632828) translate(0,-0.04846850782632828) translate(0,-0.04846850782632828) translate(0,-0.04846850782632828) translate(0,-0.04846850782632828) translate(0,0.04846850782632828) translate(0,0.04846850782632828) translate(0,0.04846850782632828) translate(0,0.04846850782632828) translate(0,0.04846850782632828) translate(0,0.04846850782632828) translate(0,0.04846850782632828) translate(0,0.04846850782632828) translate(0,0.04846850782632828) translate(0,0.09693701565265656) translate(0,0.04846850782632828) translate(0,-0.7754961252212524) translate(0,0.7754961252212524) translate(0.7641134858131409,1.5509922504425049) translate(68.77021026611328,-3.1019845008850098) translate(-69.5343246459961,3.1019845008850098) translate(-120.72992706298828,-128.73236083984375) translate(-138.30453491210938,30.244348526000977) translate(1063.0400390625,0) translate(0,855.280029296875) ">Layer 1</title>
    <path stroke="#000" fill="#009688" stroke-width="1.5" d="m806.52076,788.45377l0,0c32.07917,0 58.0845,-10.03648 58.0845,-22.41711l232.33102,0l0,0c0,12.38063 26.00532,22.41711 58.08448,22.41711l0,89.66578l0,0c-32.07917,0 -58.08448,10.03648 -58.08448,22.41711l-232.33102,0c0,-12.38064 -26.00533,-22.41711 -58.0845,-22.41711l0,-89.66578z" id="svg_256"/>
    <rect stroke="#009688" fill="#000000" stroke-width="1.5" stroke-opacity="null" fill-opacity="null" x="811.48289" y="786.06794" width="0.5" height="6.0625" id="svg_255"/>
    <path stroke="#009688" fill="none" stroke-width="1.5" id="svg_254" d="m838.79538,765.47242c-0.0625,-0.0625 -0.19745,-0.10066 -0.375,-0.1875c-0.20244,-0.09901 -0.25,-0.125 -0.3125,-0.1875c-0.0625,-0.0625 -0.13823,-0.04463 -0.3125,-0.1875c-0.06836,-0.05604 -0.08669,-0.11985 -0.25,-0.1875c-0.05774,-0.02392 -0.21642,0.07812 -0.375,-0.125c-0.07692,-0.09853 0,-0.1875 -0.0625,-0.1875l0,-0.0625"/>
    <path stroke="#009688" fill="none" stroke-width="1.5" id="svg_253" d="m860.35788,776.15992c0,0 -0.1875,-0.0625 -0.3125,-0.1875c-0.0625,-0.0625 -0.08081,-0.0808 -0.125,-0.125c-0.04419,-0.0442 -0.08081,-0.0183 -0.125,-0.0625c-0.04419,-0.0442 0,-0.125 -0.0625,-0.125l0,-0.0625l0,-0.0625"/>
    <path stroke="#009688" fill="none" stroke-width="1.5" stroke-opacity="null" fill-opacity="null" id="svg_252" d="m852.85788,779.90992c-0.0625,0 -0.29544,0.18932 -1.125,0.375c-0.43127,0.09653 -0.54814,0.12667 -0.5625,0.1875c-0.0321,0.13602 -0.125,0.4375 -0.1875,0.5c0,0 -0.04814,0.12667 -0.0625,0.1875c-0.0321,0.13602 0.12146,0.25923 0.4375,0.375c0.18558,0.06798 0.23083,0.15368 0.3125,0.1875c0.05774,0.02392 0.06726,0.08642 0.125,0.0625c0.32664,-0.1353 0.42653,-0.44362 0.5,-0.5625c0.06572,-0.10633 0.0625,-0.3125 0.0625,-0.6875c0,-0.1875 -0.1875,-0.3125 -0.5,-0.3125c-0.25,0 -0.51938,0.0836 -0.6875,0.1875c-0.30075,0.18587 -0.93585,0.62875 -1.5,0.875c-0.43623,0.19041 -0.51163,0.23078 -0.625,0.3125c-0.21512,0.15504 -0.40752,0.49158 -0.9375,0.75c-0.65755,0.32063 -1.6062,0.59291 -2.3125,0.6875c-0.24779,0.03318 -0.38495,0.03816 -0.5625,0.125c-0.20244,0.09901 -0.44354,0.38171 -0.8125,0.625c-0.28099,0.18528 -0.42648,0.21789 -0.5625,0.25c-0.24332,0.05744 -0.9375,0 -1.6875,0c-0.375,0 -0.4375,0 -0.375,0c0.0625,0 0.49554,-0.02766 1.1875,-0.125c0.62199,-0.0875 0.98743,-0.33208 1.5625,-0.6875c0.42863,-0.26491 0.59618,-0.3504 0.75,-0.4375c0.22424,-0.12697 0.36923,-0.21851 0.625,-0.25c0.24812,-0.03055 0.44199,-0.10571 0.75,-0.1875c0.38205,-0.10146 0.68393,-0.1949 0.9375,-0.3125c0.43181,-0.20027 1.07408,-0.33546 1.5625,-0.5c0.45108,-0.15195 0.74258,-0.33084 1.1875,-0.5c0.36948,-0.14048 0.58081,-0.1433 0.625,-0.1875c0.08839,-0.08839 0.1875,-0.0625 0.25,-0.0625c0.0625,0 0.1875,0 0.375,0c0.3125,0 0.5618,-0.00436 0.9375,-0.0625c0.43674,-0.06758 0.875,-0.125 1,-0.125c0.0625,0 0,0 -0.0625,0c-0.125,0 -0.125,0 -0.125,-0.0625l-0.0625,0l-0.1875,-0.0625"/>
    <path stroke="#009688" fill="none" stroke-width="1.5" stroke-opacity="null" fill-opacity="null" id="svg_251" d="m840.17038,767.03492c0,0 -0.1875,-0.125 -0.4375,-0.375c-0.125,-0.125 -0.29463,-0.26323 -0.4375,-0.4375c-0.11208,-0.13671 -0.25,-0.25 -0.375,-0.375c-0.125,-0.125 -0.3125,-0.3125 -0.5,-0.4375c-0.1875,-0.125 -0.33656,-0.33575 -0.5,-0.5625c-0.05168,-0.0717 -0.08081,-0.0808 -0.125,-0.125c-0.04419,-0.0442 0,-0.125 0,-0.125l0,-0.0625"/>
    <path stroke="#009688" fill="none" stroke-width="1.5" id="svg_250" d="m811.04538,773.34742c-0.125,-0.0625 -0.25,-0.1875 -0.25,-0.1875c-0.0625,-0.125 -0.0625,-0.1875 -0.125,-0.25l-0.0625,0"/>
    <path stroke="#009688" fill="none" stroke-width="1.5" id="svg_249" d="m811.47022,773.24718c-0.125,0 -0.13452,-0.07716 -0.25,-0.125c-0.16331,-0.06765 -0.375,-0.25 -0.5,-0.5c0,0 -0.21339,-0.03661 -0.125,-0.125c0.08839,-0.08839 0.125,0 0.125,0.125l0.125,0.125"/>
    <path stroke="#009688" fill="none" stroke-width="1.5" id="svg_248" d="m811.47022,772.99718c0,-0.125 -0.21339,-0.08839 -0.125,0c0.08839,0.08839 0.25,0.125 0.25,0.375c0,0.25 0,0.375 0,0.375c0,0.125 0,0.25 0,0.375c0,0.125 0,0.25 0,0.375c0,0.375 0,0.5 0,0.75c0,0.375 0,0.875 0,1.125c0,0.125 0,0.25 0,0.5c0,0.25 0,0.5 0,0.75c0,0.25 0,0.375 0,0.5c0,0.25 0,0.375 0,0.5c0,0.375 0,0.625 0,0.75c0,0.125 0,0.25 0,0.5c0,0.375 0,0.75 0,1c0,0.25 0,0.5 0,0.875c0,0.375 0,0.75 0,1.25c0,0.375 -0.06078,0.47797 -0.125,0.75c-0.02872,0.12166 0.08839,0.28661 0,0.375c-0.08839,0.08839 -0.07716,0.25951 -0.125,0.375c-0.06764,0.16332 -0.25,0.25 -0.25,0.375c0,0.125 0.04784,0.25951 0,0.375c-0.06764,0.16332 -0.03885,0.38503 -0.125,0.75c-0.06422,0.27203 -0.125,0.375 -0.125,0.5c0,0.125 0,0.25 0,0.375c0,0 -0.08839,0.16161 0,0.25c0.08839,0.08839 0.03661,0.16161 0.125,0.25c0.08839,0.08839 0.125,0.125 0.25,0.125c0.25,0 0.375,0 0.625,0c0.125,0 0.03661,-0.03661 0.125,-0.125c0.08839,-0.08839 0.18236,-0.08668 0.25,-0.25c0.09567,-0.23097 0.125,-0.375 0.125,-0.5c0,-0.25 0,-0.5 0,-0.875c0,-0.125 0,-0.625 0,-1c0,-0.25 0,-0.25 0,-0.375c0,-0.125 0,-0.375 0,-0.75c0,-0.125 -0.18578,-0.22797 -0.25,-0.5c-0.05743,-0.24331 0.02463,-0.75121 0,-1c-0.06281,-0.63428 -0.10037,-1.25121 -0.125,-1.5c-0.06281,-0.63428 -0.25,-1 -0.25,-1.375c0,-0.375 0,-0.75 0,-1c0,-0.125 0,-0.5 0,-0.625c0,-0.25 0,-0.375 0,-0.625c0,-0.25 0,-0.375 0,-0.5c0,-0.125 0,-0.375 0,-0.5c0,-0.125 0,-0.25 0,-0.375c0,-0.125 0,-0.375 0,-0.625c0,-0.125 0,-0.375 0,-0.5c0,-0.125 0,-0.25 0,-0.5c0,-0.125 0.16161,-0.21339 0.25,-0.125c0.08839,0.08839 -0.08839,0.16161 0,0.25c0.08839,0.08839 0.16161,-0.03661 0.25,-0.125c0.08839,-0.08839 0.16161,-0.21339 0.25,-0.125c0.08839,0.08839 0.07716,0.13451 0.125,0.25c0.1353,0.32664 0.31078,0.47797 0.375,0.75c0.11488,0.48663 0,1 0,1.5c0,0.625 -0.125,0.75 -0.125,0.875c0,0.125 -0.06078,0.10297 -0.125,0.375c-0.05743,0.24331 0,0.375 0,0.625c0,0.125 -0.125,0.25 -0.125,0.25c0,0.125 -0.05736,0.21168 -0.125,0.375c-0.09567,0.23097 0,0.375 0,0.625c0,0.25 0,0.5 0,0.75c0,0.25 -0.125,0.5 -0.125,0.625c0,0 0,0.125 0,0.25c0,0.125 0,0.25 0,0.5c0,0.125 0,0.25 0,0.375c0,0.125 0,0.125 0,0.25c0,0.125 0,0.375 0,0.5c0,0.25 0,0.5 0,0.625c0,0.25 0,0.5 0,0.75c0,0.125 0.14645,-0.10355 0.5,0.25c0.08839,0.08839 0.125,0.125 0,0.125l-0.125,0"/>
    <path stroke="#009688" fill="none" stroke-width="1.5" id="svg_247" d="m821.22022,775.37218c0,-0.125 0.125,-0.25 0.125,-0.5c0,-0.125 0,-0.25 0,-0.375c0,-0.25 -0.03661,-0.41161 -0.125,-0.5c-0.08839,-0.08839 -0.28464,-0.1535 -0.75,-0.375c-0.56433,-0.26861 -0.88452,-0.57716 -1,-0.625c-0.16331,-0.06765 -0.25,-0.125 -0.25,-0.25c0,0 -0.00668,-0.06756 -0.25,-0.125c-0.27203,-0.06422 -0.57639,0.00899 -0.875,-0.25c-0.21115,-0.18314 -0.125,-0.25 -0.25,-0.25c-0.625,0 -1.49072,-0.06219 -2.125,-0.125c-0.24878,-0.02464 -0.375,0 -0.5,0c-0.125,0 -0.25,0 -0.375,0c-0.125,0 -0.25,0 -0.375,0c-0.125,0 -0.13452,-0.07716 -0.25,-0.125c-0.16331,-0.06765 -0.50952,-0.20216 -0.625,-0.25c-0.16331,-0.06765 -0.125,-0.25 0,-0.25c0.125,0 0.25,0 0.25,0c0.125,0 0.125,-0.125 0.25,-0.125l0.25,0l0,0"/>
    <path stroke="#009688" fill="none" stroke-width="1.5" id="svg_246" d="m814.34522,771.12218c0,0 0.5,0.3402 0.75,0.3402c0.125,0 0.21169,0.07804 0.375,0.1701c0.23097,0.13019 0.47797,0.25282 0.75,0.3402c0.12166,0.03908 0.25,0 0.375,0c0.125,0 0.125,0 0.375,0c0.25,0 0.375,0 0.75,0c0.125,0 0.25,0 0.5,0c0.25,0 0.5,0 1,0c0.25,0 0.64403,0.03991 0.875,0.1701c0.16331,0.09206 0.25,0.1701 0.375,0.1701c0.125,0 0.25,0.1701 0.5,0.1701c0.125,0 0.21169,0.24815 0.375,0.3402c0.11548,0.0651 0.25,0 0.25,0.1701c0,0 0.10297,0.08272 0.375,0.1701c0.12166,0.03908 0.2316,0.02944 0.375,0.1701c0.22675,0.2224 0.375,0.1701 0.375,0.3402c0,0.1701 0,0.3402 0,0.85051c0,0.85051 0,1.53092 0,1.87113c0,0.51031 0.14351,0.88935 0,1.36082c-0.06764,0.22225 -0.125,0.3402 -0.125,0.51031c0,0.3402 0,0.85051 0,1.19072c0,0.68041 -0.08615,1.20437 0,1.70102c0.06422,0.37019 0.125,0.85051 0.125,1.36082c0,0.51031 0,1.19072 0,1.70102c0,0.3402 0,0.68041 0,1.19072c0,0.68041 0,1.19072 0,1.70102c0,0.51031 0,0.85051 0,1.36082c0,0.3402 0,0.51031 0,0.68041c0,0.1701 0,0.51031 0,0.85051c0,0.1701 0,0.3402 0,0.51031c0,0.1701 0,0.3402 0,0.51031c0,0 0.08839,0.04982 0,0.1701c-0.08839,0.12028 -0.03661,0.21993 -0.125,0.3402c-0.08839,0.12028 -0.13452,0.27511 -0.25,0.3402c-0.16331,0.09206 -0.16161,0.21993 -0.25,0.3402c-0.08839,0.12028 -0.03661,0.21993 -0.125,0.3402c-0.08839,0.12028 -0.125,0 -0.5,0c-0.25,0 -0.5,0 -0.75,0c-0.375,0 -0.86572,0.25474 -1.5,0.3402c-0.49757,0.06705 -1,0 -1.375,0c-0.625,0 -1.125,0.1701 -1.5,0.1701c-0.375,0 -0.72462,0.04364 -0.875,0.1701c-0.33624,0.2828 -0.82323,-0.07045 -1,0.1701c-0.08839,0.12028 -0.125,0.1701 -0.125,0c0,-0.1701 -0.03055,-0.68296 0,-1.02061c0.06297,-0.6961 0.31767,-1.31025 0.5,-1.87113c0.2085,-0.64139 0.15303,-1.17419 0.25,-1.53092c0.17882,-0.65779 0.08804,-1.1932 0.125,-1.70102c0.06281,-0.86314 0.25,-1.87113 0.25,-2.72164c0,-0.3402 -0.0611,-1.02571 0,-1.70102c0.06297,-0.6961 0.125,-1.70102 0.125,-1.87113c0,-0.51031 0,-0.68041 0,-0.85051c0,-0.3402 0,-0.68041 0,-1.19072c0,-0.3402 -0.05736,-0.79836 -0.125,-1.02061c-0.14351,-0.47147 -0.06203,-1.00493 -0.125,-1.70102c-0.07637,-0.84414 0,-1.53092 0,-2.21133c0,-0.3402 0,-0.85051 0,-1.02061c0,-0.3402 0,-0.68041 0,-1.02061c0,-0.1701 -0.16161,-0.29038 -0.25,-0.1701c-0.08839,0.12028 -0.14664,0.31515 -0.25,0.51031c-0.16344,0.30856 -0.08878,0.51761 -0.125,0.68041c-0.1306,0.587 -0.31168,0.99995 -0.375,1.53092c-0.02002,0.1679 0,0.3402 0,0.51031c0,0.1701 0,0.3402 0,0.51031c0,0.51031 0,0.85051 0,1.19072c0,0.1701 0,0.51031 0,1.02061c0,0.3402 0,1.19072 0,1.87113c0,0.51031 0,1.19072 0,1.53092c0,0.51031 0,1.36082 0,1.87113c0,0.3402 0,0.85051 0,1.19072c0,0.1701 0,0.85051 0,1.36082c0,0.3402 0,0.51031 0,0.51031c0,0.1701 0,0.85051 0,1.53092c0,0.3402 0,0.85051 0,1.19072c0,0.1701 0,0.51031 0,0.68041c0,0.1701 0,0.3402 0,0.51031c0,0.3402 0,0.68041 0,0.85051c0,0.1701 0.00952,0.10501 0.125,0.1701c0.16331,0.09206 0.21156,0.37185 0.375,0.68041c0.10336,0.19515 0.19823,0.26975 0.375,0.51031c0.08839,0.12028 0.3566,0.02944 0.5,0.1701c0.22675,0.2224 0.375,0.1701 0.5,0.1701c0.125,0 0.25,0 0.375,0c0.125,0 0.25668,0.07817 0.5,0c0.27203,-0.08739 0.625,-0.1701 0.875,-0.3402c0.25,-0.1701 0.47797,-0.25282 0.75,-0.3402c0.24332,-0.07817 0.46169,-0.07804 0.625,-0.1701c0.23097,-0.13019 0.46169,-0.07804 0.625,-0.1701c0.34645,-0.19529 0.41161,0.12028 0.5,0c0.08839,-0.12028 0.125,-0.1701 0.25,-0.3402c0.125,-0.1701 0.39879,-0.32005 0.625,-0.85051c0.14029,-0.32898 0.26198,-1.01708 0.5,-2.55154c0.13164,-0.84865 0.25,-1.70102 0.25,-2.21133c0,-0.51031 0,-1.02061 0,-1.70102c0,-0.68041 0,-1.19072 -0.125,-1.70102c-0.125,-0.51031 -0.18578,-0.99063 -0.25,-1.36082c-0.11488,-0.66221 -0.125,-1.02061 -0.125,-1.36082c0,-0.3402 0,-0.68041 0,-1.19072c0,-0.3402 0.03844,-0.71205 -0.125,-1.02061c-0.10336,-0.19515 -0.375,-0.51031 -0.375,-0.85051c0,-0.3402 0,-0.68041 0,-1.02061c0,-0.3402 0,-0.68041 0,-1.02061c0,-0.1701 0.125,-0.1701 0.125,-0.3402c0,-0.1701 -0.125,-0.1701 -0.25,-0.1701c-0.125,0 -0.08669,-0.24815 -0.25,-0.3402c-0.11548,-0.0651 -0.25,0 -0.375,0c0,0 -0.22067,0.02589 -0.125,0.3402c0.06764,0.22225 0.37048,0.35991 0.75,0.51031c0.49483,0.19609 0.78661,0.21993 0.875,0.3402c0.08839,0.12028 0.125,0.1701 0.125,0.3402c0,0.1701 -0.125,0.68041 -0.25,0.85051c-0.125,0.1701 -0.125,0.3402 -0.125,0.3402c0,0.1701 -0.25,0.1701 -0.5,0c-0.25,-0.1701 -0.33669,-0.41825 -0.5,-0.51031c-0.11548,-0.0651 -0.16161,-0.21993 -0.25,-0.3402c-0.08839,-0.12028 0,-0.3402 -0.125,-0.3402c-0.125,0 -0.16161,-0.04982 -0.25,-0.1701c-0.08839,-0.12028 0,-0.1701 -0.125,-0.1701c-0.125,0 -0.25952,-0.10501 -0.375,-0.1701c-0.16331,-0.09206 -0.16161,-0.21993 -0.25,-0.3402c-0.17677,-0.24056 -0.43236,-0.28805 -0.5,-0.51031c-0.04784,-0.15716 -0.125,-0.1701 -0.25,-0.1701c-0.125,0 -0.39825,-0.11781 -0.625,-0.3402c-0.1434,-0.14066 -0.25,-0.1701 -0.375,-0.1701c-0.125,0 -0.25,0 -0.5,0c-0.125,0 -0.29836,0.15609 -0.625,0.3402c-0.23097,0.13019 -0.33669,0.07804 -0.5,0.1701c-0.11548,0.0651 -0.16161,0.04982 -0.25,0.1701c-0.08839,0.12028 0,0.51031 0,1.02061c0,0.51031 0,1.02061 0,1.53092c0,0.85051 0,1.70102 0,2.04123c0,0.3402 0.06203,1.17503 0.125,1.87113c0.09164,1.01296 0,1.70102 0,2.38143c0,0.51031 0,1.36082 0,1.87113c0,0.51031 0,1.19072 0,1.70102c0,0.51031 0,1.53092 0,2.21133c0,0.3402 -0.08839,0.56013 0,0.68041c0.08839,0.12028 0.18578,0.31022 0.25,0.68041c0.02872,0.16556 0.27325,0.28791 0.5,0.51031c0.28682,0.28132 0.21169,0.41825 0.375,0.51031c0.23097,0.13019 0.5,0.1701 0.75,0.1701c0.125,0 0.17932,-0.19579 0.5,-0.51031c0.10141,-0.09946 0.26836,-0.14685 0.5,-0.51031c0.4095,-0.64252 0.54836,-1.3468 0.875,-1.53092c0.11548,-0.0651 0.53876,-0.1127 0.875,0.1701c0.30075,0.25294 0.40373,1.14717 -0.25,2.38143c-0.41345,0.78061 -0.87622,0.64689 -1.125,0.68041c-0.63428,0.08547 -1.875,0.3402 -2.625,0.3402c-0.5,0 -0.68236,-0.11795 -0.75,-0.3402c-0.14351,-0.47147 0,-0.85051 0,-1.53092c0,-0.68041 0,-1.02061 0,-1.19072c0,0 0.20972,3.88721 0.75,4.08246c0.43559,0.15742 0.87602,-0.96097 1.125,-2.21133c0.26358,-1.32367 0.36832,-2.30327 0.125,-2.38143c-0.54407,-0.17477 -0.38399,1.29465 -0.125,1.70102c0.36627,0.57469 0.64967,0.82779 0.875,0.68041c0.72139,-0.47182 1.24837,-2.34012 1.375,-3.40205c0.08009,-0.67163 -0.25,-0.85051 -0.5,-1.02061c0,0 -0.125,0.68041 -0.125,1.19072c0,0.3402 0.125,0.51031 0.25,0.51031c0.125,0 0.125,-0.51031 0.125,-1.70102c0,-1.70102 -0.12378,-2.41711 -0.25,-1.19072c-0.17337,1.68458 -0.27028,3.34684 0.125,4.42266c0.23717,0.64549 0.52492,0.53851 0.625,0.3402c0.69698,-1.38098 1.06242,-3.39568 1.125,-5.10307c0.04359,-1.18924 -0.1926,-2.37818 -0.75,-2.89174c-0.20702,-0.19073 -0.43521,0.14969 -0.625,1.36082c-0.18434,1.17636 -0.42694,2.10161 -0.25,2.55154c0.21266,0.54074 0.78661,0.63059 0.875,0.51031c0.08839,-0.12028 0,-1.87113 0,-4.42266c0,-1.87113 -0.35263,-3.62296 -0.75,-3.91236c-0.11021,-0.08027 -0.31219,-0.01262 -0.375,0.85051c-0.09854,1.3542 -0.29732,2.74894 -0.125,3.74225c0.12843,0.74037 0.66161,0.97079 0.75,0.85051c0.08839,-0.12028 0.17339,-1.36264 0.125,-2.55154c-0.06259,-1.53798 -0.74657,-3.00189 -0.875,-3.74225c-0.05743,-0.3311 0.05736,-0.22225 0.125,0c0.04784,0.15716 0.17735,0.07125 0.375,0.3402c0.19765,0.26895 0.27867,0.22657 0.75,0.51031c0.82433,0.49624 1.6353,1.25653 1.5,1.70102c-0.04784,0.15716 -0.23566,-0.02206 -0.375,-0.1701c-0.57449,-0.6104 -1.17363,-0.96209 -1.5,-1.53092c-0.44855,-0.78179 -0.42336,-1.51691 -0.75,-1.70102c-0.23097,-0.13019 -0.31007,0.3468 -0.25,0.85051c0.06332,0.53097 0.41161,0.97079 0.5,0.85051c0.08839,-0.12028 -0.125,-0.51031 -0.25,-1.36082c-0.125,-0.85051 -0.375,-1.70102 -0.625,-1.87113c-0.25,-0.1701 -0.38452,-0.2352 -0.5,-0.1701c-0.16331,0.09206 -0.125,0.85051 -0.125,1.70102c0,0.68041 0.21169,1.45288 0.375,1.36082c0.11548,-0.0651 -0.40361,-0.63442 -1,-1.36082c-0.39516,-0.48131 -0.6066,-0.87996 -0.75,-1.02061c-0.22675,-0.2224 -0.40706,-0.37474 -0.5,-0.1701c-0.20781,0.45758 -0.43703,1.00493 -0.5,1.70102c-0.07637,0.84414 -0.08623,1.87692 0,3.06184c0.12561,1.72627 0.66846,3.04338 1,4.59277c0.14409,0.67338 0.32617,0.03445 0.5,-0.85051c0.22826,-1.16201 0.20219,-2.74607 -0.125,-4.42266c-0.20291,-1.03978 -0.43703,-1.34513 -0.5,-2.04123c-0.01527,-0.16883 0,-0.3402 0,-0.51031c0,-0.1701 0.125,-0.3402 0.125,-0.85051c0,-0.68041 0,-1.02061 0,-1.19072c0,-0.1701 0.125,-0.3402 0.125,-0.51031c0,-0.3402 0.25,-0.51031 0.375,-0.51031c0.125,0 0.26903,-0.13019 0.5,0c0.32664,0.18412 0.30928,0.53571 0.375,0.68041c0.14694,0.32355 0.5,1.36082 0.5,2.04123c0,0.51031 0.03622,0.67311 0,0.51031c-0.1306,-0.587 -0.41161,-0.90034 -0.5,-1.02061c-0.17677,-0.24056 -0.33318,0.08611 -0.5,0.51031c-0.30075,0.76472 -0.38168,2.2208 -0.25,3.91236c0.18855,2.42195 0.72411,4.36174 1,4.42266c0.1745,0.03853 0.5307,-0.87274 0.375,-1.87113c-0.25557,-1.63881 -0.71858,-4.15504 -1.75,-4.93297c-0.10933,-0.08246 -0.125,0.1701 -0.125,1.02061c0,1.53092 -0.12894,2.79173 0.125,3.40205c0.0871,0.20934 0.28661,0.29038 0.375,0.1701c0.08839,-0.12028 0,-1.19072 0,-1.70102c0,-0.3402 -0.01382,-0.16958 0,0.1701c0.06259,1.53798 -0.13652,4.33826 0.375,4.25256c0.49625,-0.08313 0,-1.53092 0,-2.89174c0,-1.87113 0,-2.89174 -0.125,-2.89174c-0.375,0 -0.11276,1.67115 0.125,1.87113c0.10634,0.08943 0.18428,0.02541 0.25,0.1701c0.14694,0.32355 0.58669,0.58835 0.75,0.68041c0.11548,0.0651 0.06332,-0.14944 0,-0.68041c-0.08009,-0.67163 0.00394,-1.26081 -0.25,-1.87113c-0.17419,-0.41867 -0.29004,-0.16571 -0.25,0.1701c0.06332,0.53097 0.21169,1.45288 0.375,1.36082c0.11548,-0.0651 0,-0.51031 0,-1.87113c0,-1.19072 -0.2397,-1.93694 -0.375,-2.38143c-0.04784,-0.15716 0.00566,0.00018 0,0.1701c-0.06256,1.87691 -0.29317,3.74339 -0.25,5.27318c0.06255,2.21623 0.125,3.91236 0.125,4.93297c0,0.51031 0.125,0.51031 0.125,0c0,-0.85051 -0.06441,-1.68834 -0.5,-1.53092c-0.27014,0.09762 -0.38347,0.7051 -0.25,1.36082c0.19456,0.95587 0.56812,1.6771 0.375,0.85051c-0.37299,-1.59657 -0.8847,-2.81656 -1.375,-3.74225c-0.20673,-0.39031 -0.25,-0.1701 -0.25,0.51031c0,2.04123 0,3.74225 0,4.76287c0,0.1701 0,0.3402 0.125,0.3402l0,-0.1701"/>
    <path stroke="#009688" fill="none" stroke-width="1.5" stroke-opacity="null" fill-opacity="null" id="svg_245" d="m824.04584,766.15697c0,0 0.03125,0 0.125,0c0.15625,0 0.24886,0.03626 0.375,0.0625c0.1861,0.0387 0.37692,0.05702 0.5625,0.125c0.15802,0.05788 0.37617,0.07466 0.53125,0.09375c0.12788,0.01574 0.28209,0.05881 0.5625,0.125c0.37621,0.08881 0.7453,0.20529 1.1875,0.3125c0.46457,0.11263 0.8141,0.14091 1.1875,0.1875c0.37724,0.04707 0.65361,0.13833 0.9375,0.1875c0.24825,0.043 0.47084,0.07861 0.75,0.125c0.28421,0.04723 0.50029,0.12281 0.75,0.15625c0.21901,0.02933 0.46863,0.09504 0.8125,0.125c0.37488,0.03266 0.72055,0.08374 1.09375,0.15625c0.28282,0.05495 0.56564,0.10587 0.8125,0.15625c0.22292,0.04549 0.3138,0.08897 0.4375,0.125c0.09488,0.02763 0.17534,0.029 0.25,0.09375c0.0528,0.04578 0.07732,0.06717 0.09375,0.09375c0.03674,0.05944 0.06747,0.08158 0.15625,0.125c0.10121,0.0495 0.18199,0.1402 0.25,0.15625c0.03041,0.00718 0.0625,0.03125 0.0625,0.0625c0,0.03125 -0.00864,0.09399 0,0.25c0.01566,0.28255 0.0289,0.62534 0.09375,1.0625c0.06032,0.40658 0.10143,0.96769 0.21875,1.84375c0.10033,0.74915 0.17177,1.37341 0.21875,1.90625c0.04674,0.53011 0.03471,1.03142 0,1.71875c-0.02841,0.56265 -0.0625,0.96875 -0.0625,1.34375c0,0.21875 0.01558,0.50035 0,0.84375c-0.01564,0.34481 -0.06058,0.68772 -0.09375,0.96875c-0.02954,0.25021 -0.10933,0.56084 -0.125,0.78125c-0.00887,0.12469 -0.00421,0.31201 -0.03125,0.5625c-0.03703,0.34318 -0.11124,0.6832 -0.1875,1.03125c-0.04068,0.18568 -0.05504,0.3139 -0.09375,0.5c-0.02623,0.12614 -0.0625,0.28125 -0.0625,0.5c0,0.3125 -0.08527,0.62003 -0.15625,1c-0.04626,0.24767 -0.0603,0.53153 -0.09375,0.78125c-0.02933,0.21902 -0.01277,0.37592 -0.03125,0.5625c-0.0157,0.15857 -0.07809,0.3737 -0.09375,0.65625c-0.01038,0.18721 0.01527,0.37594 0,0.5c-0.01575,0.12788 -0.05286,0.22099 -0.09375,0.375c-0.02536,0.09551 -0.03859,0.12976 -0.0625,0.1875c-0.01691,0.04083 -0.0625,0.0625 -0.0625,0.09375c0,0.0625 -0.0314,0.09067 -0.0625,0.09375c-0.15857,0.0157 -0.28232,0.04095 -0.5,0.0625c-0.31714,0.0314 -0.78029,0.19376 -1.375,0.28125c-0.68648,0.10099 -1.09477,0.18214 -1.4375,0.25c-0.4389,0.08691 -0.89984,0.2737 -1.4375,0.40625c-0.46414,0.11443 -0.74612,0.17456 -1,0.21875c-0.3094,0.05386 -0.50046,0.02201 -0.59375,0.03125c-0.15857,0.0157 -0.27948,0.06905 -0.5,0.125c-0.27927,0.07085 -0.53125,0.09375 -0.65625,0.09375c-0.15625,0 -0.28125,0 -0.4375,0c-0.21875,0 -0.375,0 -0.46875,0c-0.09375,0 -0.18605,0.00648 -0.3125,0.03125c-0.21684,0.04248 -0.375,0.03125 -0.46875,0.03125c-0.03125,0 -0.0625,0 -0.0625,0.03125c0,0 0.02002,-0.03287 0,-0.15625c-0.01582,-0.09754 -0.03317,-0.21897 0,-0.5c0.02954,-0.25021 0.07819,-0.50039 0.09375,-0.8125c0.01564,-0.31367 0.10736,-0.62258 0.15625,-0.9375c0.04341,-0.27963 0.0625,-0.59375 0.0625,-0.9375c0,-0.34375 0.01416,-0.65433 0.0625,-1.0625c0.04427,-0.37369 0.03125,-0.71875 0.03125,-1.0625c0,-0.28125 0,-0.5 0,-0.75c0,-0.21875 0.03587,-0.38213 0,-0.46875c-0.01691,-0.04083 -0.04684,-0.15479 -0.0625,-0.40625c-0.0097,-0.15594 -0.03125,-0.34375 -0.03125,-0.5c0,-0.25 0.02216,-0.56329 0,-0.875c-0.01567,-0.22041 -0.04681,-0.34181 -0.0625,-0.53125c-0.01289,-0.15572 -0.0155,-0.30962 -0.03125,-0.4375c-0.01909,-0.15508 0.03125,-0.375 -0.03125,-0.375c-0.03125,0 -0.14587,0.59506 -0.25,1.375c-0.14212,1.06448 -0.24998,2.27963 -0.28125,3.1875c-0.01506,0.43724 -0.05127,0.62662 -0.03125,0.75c0.01582,0.09754 0.0625,0.28125 0.0625,0.53125c0,0.3125 0,0.65625 0,0.84375c0,0.15625 0,0.4375 0,0.6875c0,0.15625 0.01894,0.31311 0.03125,0.4375c0.0157,0.15857 0.03125,0.34375 0.03125,0.5625c0,0.28125 0.03125,0.4375 0.03125,0.5625c0,0.125 0.01556,0.27931 0.03125,0.46875c0.01547,0.18686 -0.02209,0.38416 0,0.40625c0.04419,0.0442 0.0625,-0.25 0.0625,-0.59375c0,-0.6875 -0.01563,-1.4056 -0.03125,-1.96875c-0.02081,-0.74971 0.05026,-1.34461 0.09375,-1.875c0.0488,-0.59503 0.0625,-1.15625 0.0625,-1.65625c0,-0.53125 0.02266,-1.09455 0.09375,-1.8125c0.08365,-0.84481 0.17027,-1.59491 0.21875,-2.1875c0.04614,-0.56408 0.09569,-0.99986 0.125,-1.4375c0.03348,-0.49986 0.0936,-0.87036 0.125,-1.1875c0.03079,-0.31098 0,-0.625 0,-1.03125c0,-0.34375 0.01501,-0.46996 0,-0.5625c-0.01582,-0.09754 -0.02238,-0.25031 -0.03125,-0.375c-0.01567,-0.22041 -0.05508,-0.47032 -0.125,-0.78125c-0.05653,-0.25142 -0.1022,-0.43568 -0.125,-0.5625c-0.05005,-0.27852 -0.09375,-0.5 -0.09375,-0.8125c0,-0.34375 -0.00662,-0.59496 -0.03125,-0.84375c-0.0157,-0.15857 -0.03125,-0.28125 -0.03125,-0.34375c0,-0.1875 0.01547,-0.28189 0,-0.46875c-0.01569,-0.18944 -0.0468,-0.40393 -0.0625,-0.5625c-0.0154,-0.15549 -0.04675,-0.34087 -0.0625,-0.46875c-0.01527,-0.12406 0,-0.25 0,-0.3125c0,-0.125 0,-0.25 0,-0.34375c0,-0.15625 0.01527,-0.21969 0,-0.34375c-0.01575,-0.12788 -0.00916,-0.22791 -0.03125,-0.25c-0.02209,-0.02209 -0.09563,0.09338 -0.15625,0.40625c-0.09676,0.49943 -0.18689,0.86189 -0.25,1.3125c-0.05635,0.40232 -0.00163,0.81241 -0.03125,1.34375c-0.03308,0.59365 -0.00917,1.08959 0.0625,1.53125c0.04533,0.27933 0.04659,0.55982 0.09375,0.875c0.04648,0.3106 0.03125,0.65625 0.03125,0.9375c0,0.28125 -0.04686,0.5616 -0.0625,0.96875c-0.0192,0.49963 -0.03125,1.125 -0.03125,1.90625c0,0.40625 0.06227,0.71299 0.09375,0.96875c0.03818,0.31016 0,0.6875 0,1.25c0,0.375 0,0.59375 0,0.84375c0,0.125 0,0.28125 0,0.40625c0,0.15625 0.03125,0.21875 0.0625,0.21875c0.03125,0 0.14099,0.01904 0.21875,-0.0625c0.12575,-0.13187 0.34685,-0.51702 0.65625,-1.3125c0.63408,-1.63019 1.21707,-3.7737 1.5625,-5.1875c0.20515,-0.83963 0.3456,-1.68727 0.4375,-2.4375c0.09567,-0.78101 0.21869,-1.55959 0.25,-2.0625c0.0136,-0.21833 -0.04903,-0.46196 -0.125,-0.6875c-0.08228,-0.24421 -0.23064,-0.52384 -0.34375,-0.71875c-0.03508,-0.06044 -0.06847,-0.04444 -0.1875,-0.09375c-0.16835,-0.06973 -0.27837,-0.17176 -0.40625,-0.1875c-0.15508,-0.01909 -0.5,0.03125 -0.6875,0.03125c-0.09375,0 -0.16148,0.0154 -0.09375,0.125c0.15147,0.24508 0.66045,0.39277 1.28125,0.59375c0.72398,0.23439 1.54929,0.4641 2.25,0.59375c0.30882,0.05714 0.40125,0.0621 0.40625,0.03125c0.03166,-0.19509 -0.56015,-0.25546 -1.0625,-0.46875c-0.52884,-0.22453 -0.93652,-0.29686 -1.3125,-0.3125c-0.34346,-0.01428 -0.53125,0 -0.53125,-0.03125c0,0 -0.14833,-0.1134 -0.28125,-0.03125c-0.11888,0.07347 -0.20952,0.46664 -0.1875,1.28125c0.03236,1.1973 0.46539,2.17888 0.78125,3.25c0.41164,1.39597 0.53908,1.95818 0.5625,1.9375c0.18887,-0.16674 0.07228,-0.93873 0.03125,-1.625c-0.04695,-0.78545 -0.31096,-1.55948 -0.75,-2.46875c-0.32864,-0.68065 -0.44119,-0.7335 -0.46875,-0.71875c-0.29802,0.1595 -0.37006,0.77856 -0.375,1.5c-0.0088,1.28465 0.34123,2.74004 0.6875,3.6875c0.10565,0.28908 0.17027,0.284 0.21875,0c0.13239,-0.77563 0.20451,-1.78782 0.09375,-2.71875c-0.11015,-0.92575 -0.39941,-1.52199 -0.53125,-1.90625c-0.11563,-0.33702 -0.1205,-0.51601 -0.21875,-0.6875c-0.16515,-0.28824 -0.46613,-0.69048 -0.75,-0.9375c-0.17,-0.14793 -0.23051,-0.12737 -0.25,0c-0.08051,0.52605 -0.10271,1.18671 0.25,2.1875c0.39032,1.1075 0.65994,1.2335 0.6875,1.21875c0.29802,-0.1595 0.3623,-0.84791 0.5625,-1.4375c0.2352,-0.6927 0.40773,-1.27467 0.25,-1.6875c-0.12064,-0.31576 -0.3125,-0.34375 -0.3125,-0.375c0,0 0.58276,0.33553 1.21875,0.625c0.5229,0.238 1.1895,0.32784 2.6875,0.125c1.50215,-0.20339 2.19926,-0.31501 2.25,-0.4375c0.0598,-0.14436 -0.01909,-0.32944 -0.1875,-0.4375c-0.21689,-0.13918 -0.5612,-0.1094 -0.84375,-0.09375c-0.09361,0.00519 -0.1875,0.03125 -0.3125,0.03125c-0.15625,0 -0.22009,-0.00906 -0.25,0c-0.10783,0.03265 -0.59375,0.21875 -1.09375,0.34375c-0.125,0.03125 -0.16545,0.04207 -0.09375,0.09375c0.11337,0.08172 0.22791,0.07166 0.25,0.09375c0.02209,0.02209 -0.0625,0.03125 -0.21875,0.03125c-0.09375,0 -0.21863,-0.03254 -0.5625,-0.0625c-0.37488,-0.03266 -0.70355,-0.05699 -0.6875,-0.125c0.00719,-0.03041 0.08794,0.0135 0.4375,0.15625c0.67725,0.27657 2.03197,0.62235 2.96875,0.875c0.34401,0.09278 0.49854,0.14059 0.75,0.15625c0.18713,0.01165 0.25,0 0.28125,0c0.03125,0 0.02164,-0.00581 0.0625,-0.0625c0.07753,-0.10756 0.23431,-0.34181 0.25,-0.53125c0.00516,-0.06229 0.06508,-0.026 0,0.375c-0.07915,0.48772 -0.23436,0.90519 -0.25,1.25c-0.00992,0.21853 0.08824,0.3277 0.15625,0.34375c0.03041,0.00718 0.19241,-0.23893 0.28125,-0.59375c0.10735,-0.42871 -0.04776,-0.9479 -0.25,-1.21875c-0.14603,-0.19556 -0.21875,-0.21875 -0.21875,-0.1875c0,0.9375 0.11342,2.37061 0.25,4.25c0.04988,0.6864 0,1.03125 0.03125,1.03125c0.03125,0 0.03905,-0.28085 0.0625,-0.8125c0.04684,-1.06193 0.19518,-2.36591 -0.03125,-2.34375c-0.37451,0.03666 -0.12949,1.53366 -0.03125,3.53125c0.10951,2.22681 0.51266,3.90488 0.625,5c0.03522,0.34337 0.0688,0.48757 0.09375,0.46875c0.36325,-0.274 0.17383,-1.31258 0.1875,-2.40625c0.01563,-1.25029 -0.08391,-2.18742 0.0625,-2.5c0.01874,-0.04002 0.04024,-0.0007 0.0625,0.34375c0.05244,0.81141 0.18942,2.24976 0.3125,3.21875c0.03175,0.24994 -0.00844,-0.15495 -0.125,-0.9375c-0.13478,-0.90485 -0.25183,-2.03114 -0.3125,-3.03125c-0.03223,-0.53119 -0.03125,-0.8125 -0.03125,-0.9375c0,-0.09375 0.01019,-0.18996 -0.0625,-0.46875c-0.08232,-0.3157 -0.19357,-0.62152 -0.28125,-0.78125c-0.03363,-0.06126 -0.04041,-0.13416 -0.0625,-0.15625c-0.02209,-0.02209 -0.05946,0.02415 -0.15625,0.46875c-0.22185,1.01915 -0.0873,2.64909 0.03125,4.125c0.0751,0.93501 0.03125,1.71875 0.03125,2.53125c0,0.625 0.06248,1.31123 0.09375,2.46875c0.03796,1.40574 0.02827,2.71983 -0.03125,3.90625c-0.04239,0.845 -0.01959,1.93424 -0.5625,1.8125c-0.13637,-0.03058 -0.04961,-0.21928 -0.0625,-0.375c-0.01569,-0.18944 -0.04915,-0.28288 -0.09375,-0.59375c-0.07225,-0.50356 -0.09665,-1.09492 -0.125,-1.4375c-0.01569,-0.18944 0.07008,-0.36742 -0.0625,-0.5c-0.02209,-0.02209 -0.09639,0.18675 -0.21875,0.625c-0.09583,0.34318 -0.09375,0.5625 -0.09375,0.625c0,0.03125 0.12415,0.08273 0.15625,0.21875c0.01436,0.06083 0.02214,0.12331 0.125,-0.40625c0.201,-1.03485 0.51157,-2.24984 0.21875,-2.875c-0.05623,-0.12006 -0.18794,-0.1179 -0.5625,0.40625c-0.51422,0.71959 -0.74702,1.50319 -1.21875,2.09375c-0.31749,0.39748 -0.81371,0.36797 -1.21875,0.09375c-0.3116,-0.21097 -0.39343,-0.34235 -0.65625,-0.4375c-0.51315,-0.18579 -1.09375,-0.3125 -1.5625,-0.46875c-0.1875,-0.0625 -0.25378,0.05259 0.03125,0.34375c0.31528,0.32206 0.91237,0.69847 1.03125,0.625c0.02658,-0.01643 -0.06802,-0.47478 -0.46875,-0.75c-0.5074,-0.34849 -0.9686,-0.44478 -1.21875,-0.3125c-0.2547,0.13468 -0.46997,0.70946 -0.625,1.3125c-0.15871,0.6173 -0.16183,0.94683 -0.0625,1c0.11021,0.05898 0.27985,-0.07966 0.3125,-0.1875c0.09056,-0.29909 -0.10835,-0.72794 -0.3125,-0.8125c-0.11548,-0.04784 -0.27493,0.09675 -0.5,0.5625c-0.24323,0.50333 -0.4343,0.79087 -0.375,0.96875c0.04941,0.14823 0.15514,0.1558 0.21875,0c0.15356,-0.37611 0.22232,-0.89288 -0.03125,-1.34375c-0.1657,-0.29462 -0.25537,-0.36127 -0.28125,-0.34375c-0.2787,0.18869 -0.35918,0.77472 -0.40625,1.28125c-0.02313,0.24892 0.1781,0.45271 0.53125,0.5c0.4646,0.06222 0.87523,-0.093 1.375,-0.25c0.59402,-0.18661 1.04448,-0.32588 1.21875,-0.46875c0.20506,-0.16811 0.37459,-0.55163 0.4375,-1.09375c0.06125,-0.52771 -0.26247,-0.9521 -0.75,-1.125c-0.48575,-0.17226 -0.8248,-0.11906 -0.9375,0.125c-0.2701,0.58488 -0.27541,1.24901 0.03125,1.59375c0.25352,0.28501 0.47202,0.28335 0.53125,0.1875c0.26491,-0.42863 -0.03268,-1.24841 -0.65625,-1.8125c-0.43108,-0.38996 -0.65076,-0.46569 -0.6875,-0.40625c-0.32858,0.53165 0.1297,1.15697 0.5,1.4375c0.2785,0.21098 0.67743,0.07773 1.28125,-0.65625c0.82625,-1.00436 1.30556,-2.41225 1.15625,-4.1875c-0.21317,-2.53461 -0.68921,-4.81802 -1.6875,-6.1875c-0.33943,-0.46564 -0.78084,-0.37489 -0.9375,0.25c-0.32819,1.30904 -0.32788,3.26501 0.34375,4.71875c0.55991,1.21191 1.21878,1.60503 1.5,1.46875c0.68076,-0.3299 1.05968,-1.76509 1.53125,-3.625c0.64478,-2.54305 1.3549,-4.80517 0.96875,-6.09375c-0.12201,-0.40716 -0.46809,-0.43468 -0.78125,0.15625c-0.46272,0.87318 -0.59875,1.88741 -0.46875,2.5625c0.09547,0.49575 0.25267,0.50113 0.34375,0.28125c0.32201,-0.77738 0.57503,-1.72195 0.46875,-2.875c-0.0974,-1.05664 -0.66151,-1.36202 -0.90625,-1.46875c-0.06406,-0.02793 -0.09468,-0.01598 -0.21875,-0.03125c-0.38365,-0.04723 -0.64523,-0.24914 -0.78125,-0.28125c-0.12166,-0.02872 -0.3125,0 -0.4375,0c-0.03125,0 -0.00577,0.01067 0.21875,0.125c0.61073,0.311 1.40791,0.73774 2.6875,1.15625c1.07338,0.35107 1.35291,0.33459 1.375,0.3125c0.06628,-0.06629 -0.10103,-0.14343 -0.21875,-0.21875c-0.16855,-0.10784 -0.44254,-0.20529 -0.875,-0.375c-0.44308,-0.17388 -0.59137,-0.26196 -0.5625,-0.25c0.16331,0.06765 0.62651,0.93672 1.125,1.90625c0.65825,1.28023 0.96631,1.8124 0.96875,1.78125c0.04701,-0.59927 0.30531,-1.15998 0.21875,-2.03125c-0.0667,-0.67129 -0.50307,-1.0597 -0.71875,-1.125c-0.05981,-0.01811 -0.05824,0.07931 -0.40625,0.1875c-0.47839,0.14873 -0.90076,0.09681 -0.9375,0.15625c-0.03285,0.05317 0.15932,0.2472 0.375,0.3125c0.08972,0.02717 0.16577,-0.16982 0.5625,-0.78125c0.41527,-0.63999 0.59375,-0.9375 0.59375,-0.96875c0,-0.03125 -0.07413,-0.07453 -0.1875,-0.15625c-0.03586,-0.02584 -0.15712,-0.03494 -0.5625,0.0625c-0.62639,0.15057 -1,0.21875 -1.125,0.21875c-0.03125,0 -0.14186,-0.0459 -0.375,-0.09375c-0.33673,-0.06911 -0.5,0 -0.53125,0c0,0 -0.19258,0.0222 -0.375,-0.03125c-0.22839,-0.06692 -0.33092,-0.21561 -0.375,-0.21875c-0.15585,-0.01108 -0.21875,0.1875 -0.34375,0.1875c-0.03125,0 -0.06427,0.00258 -0.15625,-0.0625c-0.12755,-0.09025 -0.21959,-0.13218 -0.25,-0.125c-0.06801,0.01605 -0.08875,0.03165 -0.09375,0.0625c-0.03166,0.19509 -0.0625,0.53125 -0.0625,1.125c0,1.28125 0.15457,2.84874 0.46875,4.8125c0.39609,2.47573 0.93037,4.51457 1.46875,5.875c0.17516,0.44259 0.24101,0.44031 0.28125,0.03125c0.07043,-0.71597 0.04224,-1.7188 0.03125,-3.125c-0.01563,-2.00018 -0.00423,-3.91693 -0.25,-5.09375c-0.15186,-0.72711 -0.44241,-1.24692 -0.8125,-1.84375c-0.44342,-0.71511 -0.62074,-0.9269 -0.6875,-0.90625c-0.30737,0.09509 -0.3358,1.16061 -0.21875,2.28125c0.1281,1.22642 0.20993,2.10326 0.59375,2.65625c0.26489,0.38165 0.44299,0.36144 0.46875,0.34375c0.3588,-0.24641 0.34225,-1.21871 0.3125,-2.46875c-0.04102,-1.7228 -0.40625,-2.625 -0.5,-2.84375c0,0 -0.06297,0.97141 0.03125,1.90625c0.117,1.16088 0.35742,2.61696 0.9375,4.46875c0.35754,1.14141 0.44469,1.2166 0.5,1.1875c0.537,-0.28248 0.93216,-1.23758 1.5625,-2.625c0.51137,-1.12553 0.78125,-2.21875 0.53125,-2.21875c-0.03125,0 0.10934,0.62421 0.1875,2.3125c0.07809,1.68685 0.125,2.75 0.125,3.0625c0,0 0.05727,-0.68781 0.03125,-1.78125c-0.03127,-1.31361 -0.37617,-2.92884 -1,-3.46875c-0.24327,-0.21055 -0.30969,-0.18737 -0.3125,-0.15625c-0.06276,0.69595 -0.42963,2.85001 -0.25,5.34375c0.12003,1.66631 0.12657,2.53282 0.28125,2.6875c0.02209,0.02209 0.23421,-0.21294 0.28125,-0.78125c0.07475,-0.90316 -0.10852,-2.25937 -0.46875,-3.96875c-0.33134,-1.57233 -0.50963,-2.27267 -0.625,-2.46875c-0.02242,-0.03809 -0.06429,0.00365 0.09375,1.28125c0.23276,1.88164 0.78641,3.95817 1.1875,5.40625c0.13757,0.49669 0.16541,0.66541 0.1875,0.6875c0.02209,0.02209 0.15977,-0.02168 0.28125,-0.53125c0.17632,-0.73962 0.26563,-1.87453 0.28125,-2.65625c0.00188,-0.09373 0.0399,-0.06171 0,0.9375c-0.03128,0.78312 -0.22794,1.62355 -0.3125,2.1875c-0.07013,0.46767 -0.08824,0.95355 -0.15625,0.9375c-0.18248,-0.04308 0.05991,-0.54459 -0.09375,-1.09375c-0.13603,-0.48618 -0.21567,-0.49985 -0.21875,-0.46875c-0.07851,0.79285 -0.36475,1.63196 -0.46875,2.125c-0.06734,0.31924 -0.33508,0.66321 -0.46875,1.03125c-0.0544,0.14977 -0.03125,0.125 -0.03125,-0.125c0,-0.5 0.05412,-1.28349 0,-1.9375c-0.01569,-0.18944 -0.07458,-0.19022 -0.125,0.0625c-0.24731,1.23956 -0.32813,2.62464 -0.34375,3.65625c-0.00804,0.53119 -0.0625,0.75 0,0.75c0.0625,0 0.02544,-0.47102 -0.0625,-1.3125c-0.12128,-1.16044 -0.12993,-2.04446 -0.34375,-2.4375c-0.02112,-0.03882 -0.07115,-0.03444 -0.125,0.125c-0.18681,0.5531 -0.26759,1.19395 -0.1875,1.6875c0.06332,0.39018 0.1875,0.5625 0.1875,0.53125c0,-0.65625 0.08522,-1.44724 -0.21875,-2.125c-0.13832,-0.30843 -0.42732,-0.36703 -0.625,-0.125c-0.41557,0.50886 -0.42186,1.2491 -0.4375,1.65625c-0.00479,0.12491 -0.00323,0.15608 0,0.125c0.06284,-0.6035 0.21194,-1.37518 0.1875,-3.0625c-0.03125,-2.15693 -0.25906,-4.90566 -0.875,-7c-0.29002,-0.98617 -0.50516,-1.3297 -0.53125,-1.3125c-0.19868,0.13101 -0.0537,0.92828 0.46875,2.125c0.7381,1.69072 1.81757,3.57053 3.09375,5.375c1.0177,1.439 1.46437,1.77025 1.53125,1.75c0.24113,-0.07301 0.3607,-0.83463 0,-1.46875c-0.2849,-0.50086 -0.68735,-0.45625 -0.8125,-0.34375c-0.44705,0.40185 -0.63947,1.49271 -1.125,2.40625c-0.17104,0.32181 -0.38623,0.36573 -0.5,0.09375c-0.26031,-0.62234 -0.28479,-1.41171 -0.5625,-2.75c-0.31268,-1.50678 -0.616,-2.84432 -0.78125,-2.8125c-0.03069,0.00591 0.18068,0.68962 0.5625,1.90625c0.24562,0.78264 0.33949,1.14075 0.3125,1.125c-0.7131,-0.41608 -0.85094,-2.01918 -1.40625,-3.53125c-0.51216,-1.39453 -1.26036,-2.3975 -2.0625,-2.6875c-0.2997,-0.10835 -0.4467,0.19262 -0.34375,0.84375c0.17998,1.13831 0.8349,2.83784 1.1875,4.21875c0.1669,0.65363 0.25,0.78125 0.25,0.78125c0.125,-0.1875 0.28122,-0.71662 0.3125,-1.40625c0.04106,-0.90532 -0.21742,-2.30937 -0.65625,-2.90625c-0.10471,-0.14243 -0.15625,-0.125 -0.15625,0.1875c0,0.8125 0.12801,1.99939 0.375,3.21875c0.1898,0.93703 0.19748,1.10124 0.21875,1.0625c0.13864,-0.25256 0.11707,-0.98093 -0.125,-1.9375c-0.28125,-1.11147 -0.69284,-1.81683 -0.875,-1.8125c-0.11264,0.00268 -0.1452,0.93679 -0.1875,2.4375c-0.05986,2.12439 -0.01563,4.37473 0,5.75c0.0071,0.62496 0.03119,0.59666 0.0625,0.09375c0.03107,-0.49903 -0.10109,-1.12395 -0.21875,-1.96875c-0.19998,-1.43581 -0.375,-2.5 -0.53125,-2.8125c-0.03125,-0.0625 -0.07796,-0.06831 -0.125,0.5c-0.0696,0.84087 0.04121,2.03198 0,3.1875c-0.03127,0.87667 -0.09375,1.09375 -0.0625,1.09375c0.03125,0 0.03125,-0.25 0.03125,-0.78125c0,-1.125 -0.04446,-2.65659 0,-4.15625c0.02409,-0.81274 0.01566,-1.1862 0,-1.46875c-0.00691,-0.12481 0.00354,-0.1873 0,-0.15625c-0.04718,0.41425 -0.24913,1.34739 -0.15625,2.53125c0.09404,1.19852 0.3399,2.25046 0.46875,3.3125c0.06068,0.50022 0.08936,0.75052 0.125,1.03125c0.02783,0.21921 0.04041,0.30334 0.0625,0.28125c0.02209,-0.02209 -0.06517,-0.07514 -0.09375,-0.0625c-0.42485,0.18794 -0.75661,0.81153 -0.9375,1.0625c-0.04086,0.05669 0.01147,0.07209 0.21875,-0.1875c0.26521,-0.33215 0.59447,-0.74962 0.84375,-1.21875c0.28206,-0.53082 0.50882,-0.99657 0.6875,-1.46875c0.16443,-0.43449 0.24629,-0.65704 0.28125,-0.8125c0.02827,-0.12571 -0.06073,-0.33648 0.0625,-0.4375c0.02417,-0.01981 -0.03798,0.06655 0.03125,0.65625c0.07866,0.66999 0.44485,1.08549 0.65625,1.28125c0.03242,0.03003 0.09367,-0.09064 0.125,-0.5625c0.04967,-0.74835 0.10995,-1.72906 -0.3125,-2.375c-0.16933,-0.2589 -0.37459,-0.19837 -0.4375,0.34375c-0.09367,0.80708 -0.0237,1.51121 0.28125,2.125c0.17422,0.35067 0.22368,0.3606 0.25,0.34375c0.37689,-0.24114 0.4297,-0.87208 0.4375,-1.53125c0.01038,-0.87717 -0.32362,-1.2231 -0.375,-1.1875c-0.21945,0.15208 -0.1718,0.79398 -0.0625,1.21875c0.1115,0.43332 0.39459,0.6761 0.5625,0.6875c0.12856,0.00873 0.38524,-0.36316 0.5,-0.84375c0.19812,-0.82963 0.15625,-1.84375 0.15625,-2.375c0,-0.0625 0.00571,-0.04113 0.21875,0.1875c0.42287,0.45382 1.10873,0.9173 2.03125,0.84375c1.66623,-0.13285 3.05505,-1.57109 4.125,-2.71875c1.2551,-1.34626 2.16861,-2.71222 2.59375,-3.53125c0.09657,-0.18606 0.09375,-0.21875 0.09375,-0.28125c0,-0.0625 0.06502,-0.18702 0.09375,-0.34375c0.03427,-0.18697 0.05711,-0.62653 0,-1.375c-0.02153,-0.28216 -0.03125,-0.3125 -0.03125,-0.34375c0,-0.03125 -0.04112,-0.03977 -0.09375,0.03125c-0.31627,0.42685 -0.315,0.82426 -0.4375,0.875c-0.02887,0.01196 -0.15602,-0.11924 -0.1875,-0.375c-0.04582,-0.37219 -0.00198,-1.03159 0.09375,-1.59375c0.12247,-0.71918 0.25726,-2.09705 0.53125,-4c0.2299,-1.59677 0.24995,-2.12673 0.21875,-2.125c-0.28255,0.01565 -0.50117,0.11284 -0.65625,0.09375c-0.12788,-0.01574 -0.15625,-0.125 -0.21875,-0.21875c-0.0625,-0.09375 -0.16003,-0.24621 -0.09375,-0.3125c0.02209,-0.02209 0.18329,0.07074 0.3125,0.25c0.04086,0.05669 0.09375,-0.0625 0.03125,-0.0625c-0.03125,0 0.01543,0.15246 0.03125,0.25c0.005,0.03085 -0.03125,0.03125 -0.09375,-0.03125c-0.0625,-0.0625 -0.125,-0.125 -0.21875,-0.28125l-0.09375,-0.15625l-0.03125,-0.0625"/>
    <path stroke="#009688" fill="none" stroke-width="1.5" stroke-opacity="null" fill-opacity="null" id="svg_244" d="m838.13384,765.0809c0,0 -0.16829,-0.26163 -0.25,-0.375c-0.05168,-0.0717 -0.14609,-0.20688 -0.25,-0.375c-0.04646,-0.07519 -0.125,-0.0625 -0.125,-0.125c0,-0.0625 -0.0625,-0.0625 -0.0625,0c0,0.0625 0,0.125 0,0.25c0,0.0625 0,0.125 0,0.1875l0,0.0625l0.0625,0l0,0.0625"/>
    <path stroke="#009688" fill="none" stroke-width="1.5" stroke-opacity="null" fill-opacity="null" id="svg_243" d="m839.69634,765.8934c0,-0.0625 -0.11226,-0.07258 -0.3125,-0.3125c-0.17909,-0.21459 -0.26189,-0.49259 -0.375,-0.6875c-0.07014,-0.12087 -0.16963,-0.32573 -0.3125,-0.5c-0.16811,-0.20506 -0.3125,-0.3125 -0.4375,-0.4375c-0.125,-0.125 -0.17313,-0.22179 -0.4375,-0.3125c-0.30144,-0.10342 -0.4926,-0.26189 -0.6875,-0.375c-0.12088,-0.07014 -0.20581,-0.1433 -0.25,-0.1875c-0.08839,-0.08839 -0.12976,-0.03858 -0.1875,-0.0625c-0.08167,-0.03382 -0.14438,-0.0211 -0.3125,-0.125c-0.07518,-0.04647 -0.08081,-0.0808 -0.125,-0.125c-0.04419,-0.0442 -0.0625,-0.0625 -0.125,-0.0625l-0.0625,0"/>
    <path stroke="#009688" fill="none" stroke-width="1.5" stroke-opacity="null" fill-opacity="null" id="svg_242" d="m837.00884,763.3934c-0.0625,0 0.02589,-0.03661 -0.0625,-0.125c-0.08839,-0.08839 -0.25476,-0.10108 -0.3125,-0.125c-0.08167,-0.03382 -0.25,-0.125 -0.3125,-0.25l0,-0.0625l0,-0.0625"/>
    <line stroke="#000" fill="none" stroke-width="1.5" x1="835.7166" y1="766.52457" x2="823.00181" y2="766.52457" id="svg_241" stroke-linejoin="undefined" stroke-linecap="undefined" transform="rotate(14.294235229492188 829.3593749999986,766.5245971679685) "/>
    <path stroke="#009688" fill="#000000" stroke-width="1.5" id="svg_240" d="m836.50884,762.9559c0,0.0625 0.13046,0.11212 0.4375,0.25c0.25497,0.1145 0.48418,0.39821 0.75,0.5625c0.23776,0.14695 0.38892,0.23275 0.625,0.4375c0.20032,0.17374 0.49068,0.32563 0.75,0.5c0.30243,0.20335 0.51007,0.29665 0.8125,0.5c0.25932,0.17437 0.69637,0.42259 1.125,0.6875c0.38338,0.23695 0.74304,0.44963 1.0625,0.625c0.36752,0.20175 0.66528,0.34818 1.25,0.6875c0.48351,0.28059 1.09877,0.55918 1.75,0.8125c0.42406,0.16495 0.86758,0.33084 1.3125,0.5c0.36948,0.14048 0.68524,0.25535 1.125,0.4375c0.31096,0.1288 0.5,0.1875 0.75,0.25c0.25,0.0625 0.34618,0.1629 0.5,0.25c0.22424,0.12697 0.4133,0.23553 0.75,0.375c0.23808,0.09862 0.42256,0.27599 0.625,0.375c0.17755,0.08684 0.2426,0.13689 0.4375,0.25c0.24174,0.14029 0.34738,0.28246 0.5625,0.4375c0.22675,0.16343 0.38507,0.23415 0.6875,0.4375c0.25932,0.17437 0.49304,0.32463 0.8125,0.5c0.24503,0.1345 0.5842,0.26804 0.875,0.4375c0.34576,0.20149 0.57076,0.35971 0.8125,0.5c0.1949,0.11311 0.45586,0.21708 0.8125,0.4375c0.26582,0.16429 0.4375,0.375 0.6875,0.5c0.25,0.125 0.5,0.3125 0.6875,0.4375c0.1875,0.125 0.33868,0.27618 0.4375,0.375c0.09882,0.09882 0.32413,0.10578 0.4375,0.1875c0.1434,0.10336 0.25,0.1875 0.375,0.25c0.125,0.0625 0.29333,0.21618 0.375,0.25c0.17323,0.07175 0.375,0 0.5,0c0.0625,0 0.08081,0.0183 0.125,0.0625c0.04419,0.0442 0.16161,-0.02589 0.25,0.0625c0.04419,0.0442 0.09117,0.10584 0.125,0.1875c0.02391,0.05774 0,0.1875 0,0.3125c0,0 -0.06726,0.03858 -0.125,0.0625c-0.08167,0.03382 -0.11307,0.08259 -0.3125,0.1875c-0.29787,0.15669 -0.64647,0.2352 -1,0.375c-0.20956,0.08287 -0.42975,0.20895 -0.75,0.3125c-0.49039,0.15857 -0.8405,0.15143 -1,0.25c-0.11888,0.07347 -0.12852,0.20229 -0.1875,0.3125c-0.10634,0.19868 -0.42572,0.19592 -0.5625,0.375c-0.11996,0.15707 -0.1691,0.33414 -0.3125,0.4375c-0.11337,0.08172 -0.1875,0.1875 -0.3125,0.375c-0.125,0.1875 -0.26292,0.30079 -0.375,0.4375c-0.14287,0.17427 -0.13434,0.21714 -0.1875,0.25c-0.11888,0.07347 -0.11403,0.13112 -0.1875,0.25c-0.03285,0.05317 -0.01466,0.07201 -0.0625,0.1875c-0.06764,0.16332 -0.2426,0.19939 -0.4375,0.3125c-0.12088,0.07014 -0.375,0 -0.375,0.125c0,0.0625 0.13663,0.01922 0.25,-0.0625c0.1434,-0.10336 0.25,-0.1875 0.5,-0.4375c0.25,-0.25 0.53879,-0.49535 0.9375,-0.625c0.36154,-0.11757 0.75696,-0.16531 1.1875,-0.3125c0.31848,-0.10887 0.47002,-0.27023 0.5625,-0.375c0.14914,-0.16894 0.38823,-0.29463 0.5625,-0.4375c0.1367,-0.11208 0.1875,-0.25 0.3125,-0.375c0.1875,-0.1875 0.25,-0.375 0.375,-0.5c0.0625,-0.0625 0.1554,-0.11398 0.1875,-0.25c0.01436,-0.06083 0.05774,-0.14892 0,-0.125c-0.40829,0.16912 -1.0625,1 -1.5625,1.1875c-0.5,0.1875 -0.93085,0.38729 -1.5,0.6875c-0.74168,0.3912 -1.44579,0.72678 -2,0.9375c-0.44492,0.16916 -0.79544,0.42132 -1.25,0.5625c-0.30435,0.09453 -0.50476,0.10108 -0.5625,0.125c-0.08167,0.03382 -0.1875,0.1875 -0.3125,0.3125c-0.0625,0.0625 -0.14664,0.10659 -0.25,0.25c-0.08171,0.11337 -0.125,0.1875 -0.1875,0.25c-0.0625,0.0625 -0.1758,0.13792 -0.3125,0.25c-0.17427,0.14287 -0.54047,0.31078 -0.8125,0.375c-0.06082,0.01436 -0.10583,0.02868 -0.1875,0.0625c-0.05774,0.02392 -0.125,0 -0.25,0c-0.125,0 -0.25826,-0.10971 -0.5,-0.25c-0.1949,-0.11311 -0.51392,-0.23275 -0.75,-0.4375c-0.13354,-0.11582 -0.36363,-0.10043 -0.625,-0.3125c-0.17499,-0.14198 -0.3676,-0.26189 -0.5625,-0.375c-0.12088,-0.07014 -0.3799,-0.17436 -0.5625,-0.25c-0.12912,-0.05348 -0.27815,-0.15315 -0.4375,-0.3125c-0.15935,-0.15935 -0.25952,-0.20216 -0.375,-0.25c-0.08167,-0.03382 -0.12834,-0.09628 -0.25,-0.125c-0.13602,-0.03211 -0.25,-0.1875 -0.25,-0.1875c-0.0625,0 -0.125,0 -0.1875,0c-0.0625,0 -0.125,0 -0.1875,0c-0.0625,0 -0.0625,-0.0625 -0.0625,-0.125c0,-0.0625 0.00092,-0.10652 0.1875,-0.125c0.31714,-0.0314 0.625,-0.125 0.875,-0.125c0.0625,0 0.31042,0.01145 0.625,0.0625c0.49739,0.08071 0.75826,0.23471 1,0.375c0.1949,0.11311 0.38565,0.23992 0.5625,0.4375c0.26689,0.29819 0.375,0.4375 0.5,0.5625c0.0625,0.0625 0.13663,0.10578 0.25,0.1875c0.0717,0.05168 0.0625,0.0625 0.125,0.0625c0.0625,0 0.20581,-0.0442 0.25,0c0.04419,0.0442 0.06418,0.04814 0.125,0.0625c0.13602,0.03211 0.10583,0.09118 0.1875,0.125c0.05774,0.02392 0.16833,0.02868 0.25,0.0625c0.05774,0.02392 0.08105,-0.03837 0.25,-0.1875c0.10477,-0.09249 0.35744,-0.26939 0.5625,-0.4375c0.17427,-0.14287 0.3508,-0.36053 0.6875,-0.5c0.23808,-0.09862 0.50323,-0.08495 0.75,-0.125c0.19508,-0.03166 0.42535,-0.21552 0.6875,-0.3125c0.24168,-0.08941 0.4375,-0.1875 0.625,-0.25c0.1875,-0.0625 0.3633,-0.20042 0.5,-0.3125c0.17427,-0.14287 0.38724,-0.29055 0.625,-0.4375c0.26582,-0.16429 0.46075,-0.39907 0.6875,-0.5625c0.21512,-0.15504 0.32474,-0.41555 0.5625,-0.5625c0.26582,-0.16429 0.46194,-0.4231 0.6875,-0.5625c0.16812,-0.1039 0.29968,-0.26376 0.5,-0.4375c0.23608,-0.20475 0.33669,-0.43235 0.5,-0.5c0.05774,-0.02392 0.14331,-0.0183 0.1875,-0.0625c0.04419,-0.0442 0.0625,-0.0625 0.125,-0.0625c0.125,0 0.18414,0.00356 0.25,0.0625c0.2982,0.2669 0.5,0.375 0.5,0.4375c0,0 -0.29007,-0.0344 -0.5625,-0.1875c-0.29341,-0.16489 -0.5,-0.1875 -0.625,-0.25c-0.25,-0.125 -0.5842,-0.20554 -0.875,-0.375c-0.34576,-0.20149 -0.57713,-0.28081 -0.875,-0.4375c-0.19943,-0.10491 -0.4424,-0.17436 -0.625,-0.25c-0.25824,-0.10696 -0.56604,-0.18234 -0.75,-0.3125c-0.25511,-0.18049 -0.49304,-0.32463 -0.8125,-0.5c-0.24503,-0.1345 -0.25537,-0.21378 -0.375,-0.25c-0.21568,-0.0653 -0.31604,-0.24484 -0.5,-0.375c-0.25511,-0.18049 -0.50412,-0.30486 -0.625,-0.375c-0.38982,-0.22621 -0.73518,-0.46129 -1.125,-0.6875c-0.36263,-0.21044 -0.60918,-0.39821 -0.875,-0.5625c-0.11888,-0.07347 -0.1875,-0.125 -0.125,-0.125c0.0625,0 0.34502,0.24158 0.875,0.5c0.65755,0.32063 1.25,0.5625 1.3125,0.5625c0.0625,0 0.3125,0.125 0.6875,0.375c0.375,0.25 0.52419,0.36985 0.6875,0.4375c0.05774,0.02392 0.23506,0.15099 0.4375,0.25c0.17755,0.08684 0.30981,0.14311 0.25,0.125c-0.21568,-0.0653 -0.45387,-0.38489 -0.8125,-0.5625c-0.23093,-0.11437 -0.8125,-0.125 -1.5625,-0.125c-0.375,0 -0.56122,-0.01257 -0.5,0c0.46626,0.0957 0.9814,0.51018 1.4375,0.9375c0.4205,0.39397 0.66818,0.97604 1,1.625c0.21669,0.4238 0.33105,0.66337 0.5,0.8125c0.20955,0.18498 0.32413,0.23078 0.4375,0.3125c0.0717,0.05168 0.33116,0.07368 0.4375,-0.125c0.08847,-0.16531 0.125,-0.375 0.25,-0.4375c0.125,-0.0625 0.23712,-0.25546 0.375,-0.5625c0.17175,-0.38247 0.23169,-0.6433 0.1875,-0.6875c-0.04419,-0.0442 -0.13039,0.01749 -0.5625,-0.125c-0.50714,-0.16724 -0.9375,-0.25 -1.375,-0.25c-0.625,0 -0.95581,-0.0442 -1,0c-0.04419,0.0442 0.09421,0.10681 0.4375,0.3125c0.40829,0.24464 0.98199,0.56135 1.3125,0.625c0.12274,0.02364 0.1875,-0.0625 0.1875,-0.5c0,-0.4375 0,-0.6875 0,-0.75c0,-0.125 -0.09334,-0.30491 -0.125,-0.5c-0.03003,-0.18508 -0.08081,-0.4192 -0.125,-0.375c-0.17677,0.17677 -0.02876,0.57832 0.1875,0.9375c0.27731,0.4606 0.74719,0.78432 0.8125,1c0.01811,0.05981 0,0.125 0,0.125c-0.375,-0.0625 -0.99799,-0.13231 -1.4375,-0.25c-0.24892,-0.06666 -0.32573,-0.08037 -0.5,0.0625c-0.20506,0.16811 -0.34679,0.29812 -0.4375,0.5625c-0.10342,0.30144 -0.11993,0.56919 -0.0625,0.8125c0.0321,0.13602 0.0533,0.26082 0.125,0.3125c0.11337,0.08172 0.38606,0.08408 0.6875,0.1875c0.13219,0.04536 0.11208,0.11329 0,0.25c-0.4286,0.52281 -0.75,0.875 -0.9375,1.0625c-0.125,0.125 -0.11166,0.04755 -0.25,-0.0625c-0.46143,-0.36707 -0.75,-0.4375 -1.1875,-0.4375c-0.3125,0 -0.58189,0.04494 -0.75,0.25c-0.14287,0.17427 -0.26895,0.29809 -0.3125,0.375c-0.12697,0.22424 -0.11186,0.44241 -0.1875,0.625c-0.05348,0.12912 -0.058,0.41319 -0.1875,0.5625c-0.18314,0.21116 -0.36398,0.21789 -0.5,0.25c-0.12166,0.02872 -0.30786,0.0936 -0.625,0.125c-0.49757,0.04927 -0.90076,0.06447 -1.125,-0.0625c-0.15382,-0.0871 -0.43991,-0.15282 -0.6875,-0.1875c-0.45061,-0.06311 -0.625,-0.125 -0.8125,-0.25c-0.1875,-0.125 -0.24414,-0.19396 -0.3125,-0.25c-0.17427,-0.14287 -0.375,-0.25 -0.5625,-0.4375c-0.0625,-0.0625 0.25,-0.0625 1.1875,-0.0625c1.3125,0 2.24562,0.14668 2.8125,0.25c0.43478,0.07925 0.82231,0.09873 1.1875,0.25c0.25824,0.10696 0.5,0.25 0.6875,0.25c0.1875,0 0.32573,-0.04463 0.5,-0.1875c0.1367,-0.11208 0.24129,-0.16204 0.25,-0.25c0.0222,-0.22425 -0.5625,-0.5625 -0.9375,-0.8125c-0.375,-0.25 -0.93417,-0.46867 -1.375,-0.5c-0.12468,-0.00886 -0.11177,0.04463 0.0625,0.1875c0.47849,0.39226 0.92232,0.74918 1.3125,0.8125c0.06169,0.01001 0.13402,0.00412 0.1875,-0.125c0.07564,-0.18259 -0.0379,-0.47182 -0.375,-0.6875c-0.23544,-0.15064 -0.5,-0.25 -0.625,-0.25c-0.1875,0 -0.1875,0.125 -0.1875,0.125c0,0.125 0.1875,0.25 0.375,0.25c0.125,0 0.38573,-0.21967 0.5625,-0.75c0.22098,-0.66291 0.30917,-1.79977 -0.125,-2.6875c-0.29701,-0.6073 -0.63452,-0.76466 -0.75,-0.8125c-0.08167,-0.03382 -0.0743,-0.09904 -0.125,-0.0625c-0.16034,0.11556 0.0208,0.67052 0.5625,1.125c0.58446,0.49035 0.9375,0.5625 1,0.5625c0,0 -0.0905,-0.34034 -0.5,-0.8125c-0.57912,-0.66773 -1.35634,-1.27626 -1.875,-1.625c-0.30243,-0.20335 -0.50934,-0.34536 -0.5625,-0.3125c-0.11888,0.07347 -0.14636,0.39794 0.1875,0.6875c0.23608,0.20475 0.4375,0.3125 0.5625,0.3125c0.0625,0 0.13017,-0.02534 0.3125,-0.4375c0.10425,-0.23566 0.1875,-0.75 0.1875,-1.25c0,-0.5 -0.00507,-0.75669 -0.0625,-1c-0.0321,-0.13602 -0.07167,-0.24146 -0.1875,-0.375c-0.20476,-0.23608 -0.3125,-0.4375 -0.375,-0.5c-0.0625,-0.0625 -0.125,-0.125 -0.125,-0.25c0,-0.0625 0.06726,-0.08642 0.125,-0.0625c0.24498,0.10147 0.625,0.375 1.0625,0.75c0.4375,0.375 0.86403,0.56862 0.9375,0.6875c0.03285,0.05317 0.28114,0.24612 0.3125,0.625c0.06186,0.74744 -0.00529,1.58199 0.1875,2.125c0.14027,0.3951 0.45319,0.87002 0.625,1.4375c0.2065,0.68203 0.31471,1.46902 0.5,1.75c0.04866,0.07379 0.00156,-0.00141 -0.5625,-0.625c-0.62328,-0.68906 -1.19591,-1.38139 -1.875,-2.3125c-0.56216,-0.7708 -0.80148,-1.40711 -0.9375,-1.375c-0.06082,0.01436 0.10564,0.13951 0.625,0.8125c0.54271,0.70323 0.9897,1.04836 1.125,1.375c0.02391,0.05774 0.02287,-0.06288 0,-0.75c-0.03127,-0.93906 -0.29582,-1.57705 -0.625,-1.9375c-0.17882,-0.1958 -0.25,-0.25 -0.25,-0.1875c0,0.1875 0.03748,0.80673 0.125,1.5c0.10988,0.87032 0,1.375 0.0625,1.375c0.0625,0 0.0519,-0.19295 0,-0.4375c-0.12778,-0.60214 -0.62666,-1.66958 -1.625,-3.1875c-0.85309,-1.29707 -1.38927,-1.50925 -1.5625,-1.4375c-0.40829,0.16912 -0.54561,0.82681 -0.8125,1.125c-0.11789,0.13172 -0.125,0.125 -0.375,0.125c-0.3125,0 -0.83864,0.14893 -1.25,0c-0.45898,-0.16618 -0.88409,-0.61024 -1.5,-1c-0.9521,-0.60252 -1.88112,-1.30348 -2.4375,-1.6875c-0.44247,-0.3054 -0.83188,-0.5211 -1,-0.625c-0.07518,-0.04647 -0.125,-0.0625 -0.125,-0.0625c-0.125,0.0625 -0.31584,0.09122 -0.4375,0.0625c-0.13602,-0.03211 -0.2662,-0.17316 -0.375,-0.3125c-0.22427,-0.28725 -0.45554,-0.67927 -0.5625,-0.9375c-0.07564,-0.18259 -0.11545,-0.31509 -0.1875,-0.5625c-0.05525,-0.18976 -0.125,-0.375 -0.125,-0.5625c0,-0.25 0,-0.375 0,-0.5625c0,-0.0625 0,-0.125 0,-0.1875c0,-0.0625 -0.02867,-0.16834 -0.0625,-0.25c-0.04784,-0.11549 -0.02867,-0.16834 -0.0625,-0.25c-0.02391,-0.05774 0,-0.1875 -0.0625,-0.1875c-0.0625,0 -0.0625,0.0625 -0.0625,0.1875c0,0.25 0,0.4375 0,0.625c0,0.3125 0.04034,0.68829 0.0625,1c0.03133,0.44083 0.0625,0.6875 0.0625,0.9375c0,0.1875 0,0.375 0,0.75c0,0.375 0,0.625 0,1c0,0.25 0,0.375 0,0.625c0,0.25 0,0.625 0,0.9375c0,0.3125 0,0.5 0,0.875c0,0.5625 -0.0625,0.9375 -0.0625,1.1875c0,0.25 0,0.375 0,0.5625c0,0.125 0,0.25 0,0.5625c0,0.3125 -0.0311,0.62036 -0.0625,0.9375c-0.04311,0.43537 0,0.8125 0,1.25c0,0.5 0,0.8125 0,1.1875c0,0.375 0,0.625 0,0.875c0,0.3125 -0.0659,0.63064 -0.125,0.9375c-0.06364,0.3305 -0.13676,0.49648 -0.1875,0.6875c-0.0818,0.30801 -0.1875,0.4375 -0.1875,0.6875c0,0.1875 -0.05508,0.31407 -0.125,0.625c-0.05653,0.25142 -0.0625,0.375 -0.0625,0.625c0,0.25 -0.04092,0.57356 0.0625,0.875c0.04535,0.13219 0.09334,0.30491 0.125,0.5c0.02002,0.12338 0.0625,0.25 0.125,0.375c0.0625,0.125 0.0625,0.25 0.125,0.375c0.0625,0.125 0.05325,0.32677 0.125,0.5c0.03383,0.08166 0.0625,0.125 0.0625,0.25c0,0.1875 0,0.375 0,0.375c0,0.0625 -0.04308,0.13001 0,0.3125c0.0321,0.13602 0.0625,0.1875 0.0625,0.25c0,0.0625 0,0.0625 0,0.25c0,0.1875 0.03285,0.25933 0,0.3125c-0.07347,0.11888 -0.20581,0.0808 -0.25,0.125c-0.04419,0.0442 -0.02867,0.10584 -0.0625,0.1875c-0.02391,0.05774 0.00334,0.15372 0.125,0.125c0.13602,-0.03211 0.19226,-0.03858 0.25,-0.0625c0.08167,-0.03382 0.05492,-0.15584 0.25,-0.1875c0.30847,-0.05006 0.56752,-0.01942 0.75,-0.0625c0.13602,-0.03211 0.25,-0.0625 0.375,-0.0625c0.1875,0 0.375,0.0625 0.5,0.0625c0.1875,0 0.49423,-0.09351 0.75,-0.125c0.37219,-0.04582 0.63841,0.02806 0.9375,-0.0625c0.21568,-0.0653 0.34682,-0.1847 0.5625,-0.25c0.11963,-0.03622 0.16833,-0.02868 0.25,-0.0625c0.11548,-0.04784 0.25168,-0.11064 0.3125,-0.125c0.13602,-0.03211 0.17314,-0.06417 0.1875,-0.125c0.0321,-0.13602 0.2179,-0.23898 0.25,-0.375c0.01436,-0.06083 0.11186,-0.12991 0.1875,-0.3125c0.05348,-0.12912 0.08192,-0.31751 0.125,-0.5c0.0321,-0.13602 0.0625,-0.1875 0.0625,-0.25c0,-0.125 0.03084,-0.24241 0.0625,-0.4375c0.01001,-0.06169 0.0625,-0.125 0.0625,-0.3125c0,-0.125 0,-0.3125 0,-0.6875c0,-0.25 0,-0.4375 0,-0.625c0,-0.1875 0,-0.4375 0,-0.6875c0,-0.1875 0,-0.25 0,-0.375c0,-0.125 0,-0.1875 0,-0.4375c0,-0.125 -0.04419,-0.2683 0,-0.3125c0.04419,-0.0442 0.08081,-0.0183 0.125,-0.0625c0.04419,-0.0442 0.02328,0.05763 -1,0.4375c-0.79695,0.29585 -1.61572,0.49969 -2.25,0.5625c-0.24878,0.02464 -0.33081,-0.0442 -0.375,0c-0.08839,0.08839 0.00172,0.24717 0.3125,0.4375c0.50282,0.30795 1.07704,0.60833 1.4375,0.9375c0.32634,0.29802 0.53432,0.6222 0.75,0.6875c0.11963,0.03622 0.375,-0.25 0.5,-0.4375c0.125,-0.1875 0.28114,-0.37112 0.3125,-0.75c0.02577,-0.31143 -0.05148,-0.71789 -0.1875,-0.75c-0.06082,-0.01436 -0.22559,0.17484 -0.3125,0.5c-0.11412,0.42695 -0.25,0.875 -0.25,1.1875c0,0.125 -0.03003,-0.00468 0.0625,-0.5c0.09464,-0.50662 0.125,-0.875 0.0625,-1c-0.0625,-0.125 -0.20581,-0.2317 -0.25,-0.1875c-0.04419,0.0442 -0.10558,0.30218 -0.25,1c-0.08957,0.43277 -0.125,0.75 -0.125,1c0,0.1875 0,0.5625 0,0.75c0,0.125 0,0.25 0,0.4375c0,0.0625 -0.0625,0.0625 -0.0625,0.125c0,0.0625 -0.06418,0.04814 -0.125,0.0625c-0.13602,0.03211 -0.24242,0.09334 -0.4375,0.125c-0.30847,0.05006 -0.69315,0.07008 -1.125,0c-0.39018,-0.06332 -0.80959,-0.21869 -1.3125,-0.25c-0.49904,-0.03107 -1,-0.0625 -1.125,-0.0625c-0.125,0 -0.1875,0 -0.25,0c-0.0625,0 -0.23564,0.06083 -0.25,0c-0.0321,-0.13602 0.18831,-0.13501 0.25,-0.125c0.19508,0.03166 0.32642,0.10775 0.5625,0.3125c0.20032,0.17374 0.3125,0.3125 0.3125,0.375c0,0.0625 0.06471,0.40652 0.25,0.6875c0.04866,0.07379 0.13452,0.11034 0.25,0.0625c0.16331,-0.06765 0.28081,-0.20213 0.4375,-0.5c0.20982,-0.39887 0.45198,-0.74548 0.5625,-1.125c0.14409,-0.49483 0.15466,-1.06778 0.0625,-1.5c-0.09489,-0.445 -0.21194,-0.7356 -0.4375,-0.875c-0.16812,-0.1039 -0.45047,-0.06539 -0.5,0.1875c-0.08496,0.4337 0.04599,0.82722 0.4375,1.25c0.30028,0.32426 0.62907,0.55649 1,0.8125c0.44247,0.3054 0.93173,0.46851 1.1875,0.5c0.31017,0.03819 0.50339,0.03546 0.6875,0c0.33051,-0.06365 0.65076,-0.24803 0.875,-0.375c0.15382,-0.0871 0.21915,-0.16659 0.375,-0.25c0.28098,-0.15038 0.81375,-0.02705 1.3125,-0.0625c0.44083,-0.03133 0.74423,-0.21851 1,-0.25c0.1861,-0.02291 0.375,0 0.4375,0c0.0625,0 0.125,0 0.25,0c0.125,0 0.24774,-0.00724 0.4375,-0.0625c0.24742,-0.07204 0.3033,-0.13582 0.375,-0.1875c0.11337,-0.08172 0.25,-0.0625 0.375,-0.0625c0.0625,0 0.11034,-0.07201 0.0625,-0.1875c-0.03383,-0.08166 -0.18398,-0.13677 -0.375,-0.1875c-0.30801,-0.08179 -1.00739,-0.21096 -1.4375,-0.3125c-0.19235,-0.04541 -0.375,-0.0625 -0.625,-0.0625c-0.375,0 -0.83153,-0.09567 -1.0625,0c-0.08167,0.03382 -0.25258,0.11546 -0.5,0.1875c-0.37952,0.11052 -0.66359,0.12976 -0.6875,0.1875c-0.03383,0.08166 0.02722,0.12244 0.3125,0.25c0.29094,0.13008 0.56529,0.17258 0.9375,0.25c0.25229,0.05247 0.52618,0.09882 0.625,0c0.19765,-0.19764 0.47133,-0.66891 0.5625,-0.875c0.10425,-0.23566 0.0625,-0.5625 0.0625,-0.9375c0,-0.0625 0,0 -0.1875,0.1875c-0.25,0.25 -0.35669,0.2683 -0.3125,0.3125c0.04419,0.0442 0.2083,0.02947 0.75,-0.375c0.39113,-0.29205 0.63417,-0.49146 0.75,-0.625c0.20476,-0.23608 0.36859,-0.47803 0.6875,-1.375c0.30484,-0.85744 0.40602,-1.36924 0.4375,-1.625c0.01527,-0.12406 0.08081,-0.2058 0.125,-0.25c0.04419,-0.0442 0.00943,-0.08966 0.125,-0.25c0.18272,-0.25351 0.56703,-0.34586 0.6875,-0.3125c0.35121,0.09728 0.55475,0.39645 0.875,0.5c0.24519,0.07928 0.53661,0.15089 0.625,0.0625c0.44194,-0.44194 0.10745,-1.55463 -0.25,-2.375c-0.30473,-0.6994 -1.14679,-1.20388 -2,-1c-0.70891,0.1694 -0.95601,0.59104 -0.8125,0.9375c0.2706,0.65328 1.03374,1.0293 1.5,1.125c0.55101,0.1131 0.99828,-0.04047 1.0625,-0.3125c0.17232,-0.72993 -0.05132,-1.45617 -0.25,-1.5625c-0.0551,-0.02949 -0.20245,0.02657 -0.375,0.5c-0.23927,0.65652 -0.17685,1.30788 0.0625,1.875c0.26175,0.62017 0.34334,0.86741 0.375,1.0625c0.02002,0.12338 -0.12978,0.00351 -0.3125,-0.25c-0.23112,-0.32067 -0.26622,-0.49908 -0.375,-0.4375c-0.31712,0.17956 -0.34334,0.61741 -0.375,0.8125c-0.02002,0.12338 0.03117,0.06583 0.0625,-0.375c0.03545,-0.49874 0.14809,-1.26134 -0.375,-2.125c-0.29851,-0.49287 -0.51416,-0.53963 -0.5625,-0.5c-0.24646,0.20204 -0.31453,0.90164 -0.125,1.5625c0.16255,0.56677 0.59682,0.8722 0.8125,0.9375c0.05981,0.01811 0.22031,-0.38627 0.0625,-1.3125c-0.19611,-1.15101 -0.73441,-1.95833 -1.3125,-2.375c-0.18282,-0.13176 -0.54178,0.40305 -0.1875,2c0.34245,1.54361 0.87044,2.79295 1.3125,3c0.05659,0.02651 0.3727,0.036 0.5,-0.625c0.10637,-0.55235 -0.00734,-1.18559 -0.3125,-2.375c-0.32021,-1.24805 -0.79329,-2.32413 -0.875,-2.4375c-0.05168,-0.0717 -0.2187,0.24767 -0.25,0.875c-0.0249,0.49938 0.16814,1.06419 0.625,1.5625c0.27045,0.29498 0.40031,0.33018 0.4375,0.25c0.31665,-0.68274 -0.07788,-1.76212 -0.4375,-3.0625c-0.33194,-1.20025 -0.85918,-1.89821 -1.125,-2.0625c-0.11888,-0.07347 -0.36678,0.13725 -0.25,0.6875c0.12778,0.60214 0.52646,0.90176 0.875,1.1875c0.06836,0.05604 0.19504,-0.00089 0.125,-0.5625c-0.06607,-0.5299 -0.60297,-0.99159 -1.25,-1.1875c-0.17946,-0.05434 -0.49992,0.15995 -0.25,0.8125c0.3412,0.89091 0.81752,1.60147 1.0625,1.5c0.05774,-0.02392 -0.16104,-0.38786 -0.6875,-1.4375c-0.47635,-0.94973 -0.94025,-2.09421 -1.6875,-2.9375c-0.38216,-0.43127 -0.62453,-0.38653 -0.6875,0.125c-0.084,0.68235 0.32652,1.17728 0.6875,1.6875c0.13016,0.18396 0.17203,0.119 0.125,-0.0625c-0.16141,-0.6229 -0.59618,-1.25134 -1.1875,-2c-0.43829,-0.55489 -0.80823,-0.80791 -0.875,-0.75c-0.23608,0.20475 0.90814,0.7674 1.6875,1.375c0.52397,0.40849 0.77391,0.49524 0.75,0.4375c-0.03383,-0.08166 -0.33998,-0.77727 -0.6875,-1.1875c-0.05713,-0.06744 -0.04164,-0.02499 0.1875,0.1875c0.48715,0.45177 0.86302,1.01444 1.3125,1.375c0.24376,0.19554 0.35669,0.2058 0.3125,0.25c-0.04419,0.0442 -0.31046,-0.19121 -0.875,-0.5c-0.8096,-0.44283 -1.47778,-0.91068 -2.0625,-1.25c-0.12088,-0.07014 -0.125,0 0.1875,0.3125c0.5,0.5 1.16884,0.92632 1.0625,1.125c-0.0295,0.05511 -0.61346,-0.32963 -1.8125,-1.125c-0.86684,-0.575 -1.42198,-1.03319 -2.0625,-1.3125c-0.48949,-0.21345 -0.70181,-0.17104 -0.625,0c0.3083,0.68655 1.48572,1.07391 1.9375,1.625c0.08861,0.10808 -0.01372,0.14594 -0.5,-0.1875c-0.77319,-0.53017 -1.38466,-1.16554 -1.875,-1.75c-0.28406,-0.33857 -0.50867,-0.4994 -0.5,-0.4375c0.06311,0.45061 0.30959,1.18301 0.5,1.0625c0.30795,-0.19488 -0.48381,-0.73293 -0.625,-1.1875c-0.09453,-0.30434 -0.125,-0.4375 -0.125,-0.375c0,0.0625 0.08868,0.08868 0.1875,0.1875c0.19765,0.19764 0.7625,0.42648 1.3125,1.0625c0.1474,0.17046 0.1875,0.1875 0.1875,0.125c0,-0.0625 0.21732,0.01795 0.75,0.1875c0.78334,0.24933 1.625,0.5 2.125,0.75c0.25,0.125 0.33641,0.12024 0.3125,0.0625c-0.10147,-0.24498 -0.93896,-0.81039 -1.75,-1.375c-0.62613,-0.43588 -1.26604,-0.64104 -1.5625,-0.9375c-0.09882,-0.09882 -0.06967,-0.1794 0,-0.125c0.28725,0.22427 0.87886,0.55831 1.625,1.25c1.00523,0.93188 1.59496,1.47239 1.75,1.6875c0.08171,0.11337 0.13434,0.09214 0.1875,0.125c0.11888,0.07347 0.25,0.375 0.4375,0.8125c0.375,0.875 0.71243,2.13408 1.0625,3.5c0.33888,1.32229 0.62453,2.05097 0.6875,2.5625c0.05345,0.43422 -0.0625,0.6875 0,0.6875c0.0625,0 0.1508,-0.14032 0,-0.875c-0.19141,-0.93253 -0.58926,-1.52646 -0.875,-1.875c-0.05603,-0.06835 -0.0625,0.0625 -0.0625,1.125c0,1.375 0.08591,2.36353 0.375,2.8125c0.0957,0.14863 0.23752,0.16009 0.3125,0c0.29282,-0.62516 -0.08282,-1.84704 -0.5625,-3.125c-0.41264,-1.09938 -0.6875,-1.4375 -0.6875,-1.3125c0,0.5 0.38255,1.98502 0.9375,3.1875c0.36383,0.78838 0.5625,1.0625 0.5625,1.0625c0.0625,-0.0625 0.31969,-0.66146 0,-1.5625c-0.4487,-1.26469 -1.09549,-2.23524 -1.375,-2.375c-0.05591,-0.02795 -0.2041,1.19779 0.0625,2.9375c0.24138,1.57506 0.60583,2.34632 0.6875,2.3125c0.05774,-0.02392 -0.13222,-0.56041 -0.5625,-2.0625c-0.57211,-1.99727 -1.10605,-3.83803 -1.75,-5.75c-0.27785,-0.82499 -0.33081,-0.9817 -0.375,-0.9375c-0.88388,0.88388 0.15247,3.13733 0.4375,5c0.27997,1.82959 0.36742,2.84416 0.5625,2.8125c0.06169,-0.01001 0.09273,-0.26216 -0.125,-1.5625c-0.30791,-1.83895 -0.57784,-4.07627 -1.3125,-5.9375c-0.28752,-0.72843 -0.51373,-0.88347 -0.625,-0.6875c-0.61794,1.08838 0.10281,3.005 0.4375,4.4375c0.17589,0.75281 0.27654,0.95574 0.3125,0.875c0.4838,-1.08628 0.09633,-2.31285 0.0625,-3.9375c-0.03125,-1.50098 -0.23616,-2.13629 -0.1875,-2.0625c0.18529,0.28098 1.22792,2.38618 2.3125,4.5c0.61259,1.19395 0.875,1.625 0.875,1.625c0,-0.3125 -0.24739,-1.06348 -0.625,-2.0625c-0.49658,-1.3138 -0.92065,-2.48085 -1.1875,-2.875c-0.04956,-0.07319 -0.15605,0.05337 -0.25,1.5c-0.12151,1.87106 -0.00015,3.36834 0.0625,4.25c0.01329,0.18703 -0.49036,-0.98197 -1,-2.5625c-0.6982,-2.16525 -0.98428,-4.21417 -1.5,-4.5c-0.05467,-0.0303 -0.34677,0.50268 -0.25,2.25c0.09389,1.69529 0.50269,3.69794 0.75,4.9375c0.10085,0.50542 0.14331,0.7317 0.1875,0.6875c0.04419,-0.0442 0.03326,-0.81694 -0.125,-1.875c-0.20674,-1.38216 -0.48898,-2.65711 -0.625,-2.625c-0.06082,0.01436 -0.20796,1.26264 0,2.8125c0.1109,0.82645 0.26831,1.1067 0.3125,1.0625c0.04419,-0.0442 0.03401,-0.75465 -0.1875,-2.25c-0.32523,-2.19545 -0.39066,-4.64924 -1,-5.125c-0.09853,-0.07693 -0.35138,-0.01782 -0.5,1.125c-0.20166,1.55069 -0.16547,3.87724 -0.0625,6.25c0.06256,1.44157 0.25476,1.71142 0.3125,1.6875c0.16331,-0.06765 0.12798,-1.12537 -0.0625,-2.625c-0.24615,-1.938 -0.38678,-4.45187 -0.625,-5.875c-0.04254,-0.25416 -0.18304,-0.12672 -0.1875,1c-0.01041,2.62795 0.45264,4.6846 0.625,5.625c0.06854,0.37395 0.0625,0.5 0.0625,0.4375c0,-0.3125 -0.15105,-1.80871 -0.375,-3.4375c-0.28299,-2.05824 -0.25342,-4.03618 -0.625,-5.0625c-0.09515,-0.26282 -0.20941,-0.25448 -0.25,0c-0.27631,1.73257 -0.22914,4.25043 -0.1875,6.25c0.03125,1.50098 0.2811,2.49536 0.3125,2.8125c0.00616,0.06219 0.0625,0.0625 0.0625,0c0,-0.4375 -0.10181,-1.68345 -0.25,-3.3125c-0.17024,-1.87144 -0.05862,-4.03136 -0.4375,-4c-0.06229,0.00516 -0.09279,0.31828 0.0625,2.0625c0.19595,2.201 0.53813,4.81551 0.875,7.4375c0.23315,1.81474 0.4375,2.8125 0.4375,3.0625c0,0.125 -0.01831,0.2058 -0.0625,0.25c-0.04419,0.0442 -0.0507,0.06107 -0.125,-0.5c-0.10791,-0.81495 -0.10886,-2.10207 -0.625,-2.4375c-0.0524,-0.03406 -0.13248,-0.00175 -0.1875,0.25c-0.21722,0.99397 -0.35448,2.38892 -0.5625,3.375c-0.13469,0.63847 -0.30774,1.02392 -0.25,1c0.08167,-0.03382 0.15602,-0.11924 0.1875,-0.375c0.07637,-0.62032 -0.11624,-1.56364 -0.25,-2.5625c-0.11732,-0.87606 -0.13725,-1.12379 -0.125,-1.0625c0.15935,0.79672 0.59488,1.68733 1.125,2.375c0.26982,0.35001 0.4501,0.47514 0.5,0.4375c0.36325,-0.274 0.34689,-1.06422 0.4375,-2.3125c0.09544,-1.31498 0.1875,-2.1875 0.125,-2.1875c-0.0625,0 -0.26517,1.00242 -0.1875,2.25c0.06262,1.00584 0.26662,1.83725 0.6875,2.5625c0.22621,0.38981 0.625,0.5 0.75,0.5c0.125,0 0.19713,0.0593 0.375,0c0.29646,-0.09882 0.69664,-0.51188 0.875,-1.1875c0.30354,-1.14975 -0.17366,-2.19225 -0.4375,-2.9375c-0.17821,-0.50339 -0.35832,-1.02039 -0.8125,-1.375c-0.22031,-0.17201 -0.62695,0.02448 -0.8125,0.875c-0.21356,0.97893 -0.14038,1.92211 0.375,2.4375c0.25769,0.25769 0.39792,0.19653 0.4375,0.0625c0.16029,-0.54279 0.55511,-1.63033 0,-2.6875c-0.26788,-0.51016 -0.80724,-0.53102 -1.125,0.3125c-0.33342,0.88508 -0.28125,2.12159 0.1875,3.125c0.38152,0.81667 1.36258,1.27207 1.5625,1.8125c0.02168,0.05862 0.20598,-0.00375 0.125,-0.875c-0.09415,-1.01306 -0.39352,-2.15012 -0.8125,-3.6875c-0.40019,-1.46842 -0.86205,-2.45988 -1,-2.4375c-0.08725,0.01416 -0.24019,1.12909 -0.125,2.75c0.09398,1.32249 0.37077,2.1003 0.6875,2.375c0.14931,0.12949 0.33434,0.07265 0.5,-0.3125c0.28905,-0.67201 0.51276,-1.88007 0.375,-3.75c-0.12534,-1.70131 -0.54333,-2.52868 -0.625,-2.5625c-0.05774,-0.02392 -0.2701,0.8214 -0.125,2c0.09445,0.76729 0.30794,1.48045 0.75,1.6875c0.1698,0.07953 0.37654,0.05953 0.5625,-0.5c0.23737,-0.71419 0.2894,-1.80596 -0.1875,-2.9375c-0.28308,-0.67165 -0.67905,-0.83889 -0.75,-0.625c-0.37439,1.12867 0.03644,2.24017 0.6875,2.9375c0.36691,0.39298 0.48564,0.37333 0.5,0.3125c0.06422,-0.27203 0.36777,-0.87451 0.3125,-1.75c-0.06024,-0.95417 -0.3125,-1.375 -0.3125,-1.375c-0.0625,0.375 -0.11499,1.7654 0.3125,3.125c0.27869,0.88634 0.52419,1.36985 0.6875,1.4375c0.05774,0.02392 0.23886,-0.12165 0.25,-0.6875c0.01726,-0.87706 -0.37563,-1.59618 -0.75,-2.5c-0.07564,-0.18259 -0.13219,-0.0586 -0.0625,0.5625c0.15723,1.40127 0.69052,2.34746 1.1875,3.125c0.1683,0.26331 0.21115,0.25925 0.25,0.125c0.17459,-0.60336 0.29732,-1.20757 0.125,-1.9375c-0.09633,-0.40805 -0.27164,-0.51841 -0.375,-0.375c-0.08171,0.11337 -0.0625,0.1875 -0.0625,0.25l-0.25,0"/>
    <line stroke="#000" fill="none" stroke-width="1.5" stroke-opacity="null" fill-opacity="null" x1="823.70328" y1="764.53034" x2="823.70328" y2="868.40534" id="svg_239" stroke-linejoin="undefined" stroke-linecap="undefined"/>
    <line stroke="#000" fill="none" stroke-width="1.5" stroke-opacity="null" fill-opacity="null" x1="851.84824" y1="908.15177" x2="851.84824" y2="847.53345" id="svg_238" stroke-linejoin="undefined" stroke-linecap="undefined" transform="rotate(-71.36325073242188 851.8483276367185,877.8425903320311) "/>
    <line stroke="#000" fill="none" stroke-width="1.5" x1="823.68006" y1="771.30055" x2="812.7799" y2="771.30055" id="svg_237" stroke-linejoin="undefined" stroke-linecap="undefined" transform="rotate(14.294235229492188 818.2301025390611,771.3005371093748) "/>
    <line stroke="#000" fill="none" stroke-width="1.5" stroke-opacity="null" fill-opacity="null" x1="813.39078" y1="769.40534" x2="813.39078" y2="871.96784" id="svg_236" stroke-linejoin="undefined" stroke-linecap="undefined"/>
    <line stroke="#000" fill="none" stroke-width="1.5" stroke-opacity="null" fill-opacity="null" x1="847.23441" y1="914.15526" x2="847.23441" y2="845.20969" id="svg_235" stroke-linejoin="undefined" stroke-linecap="undefined" transform="rotate(-76.64324951171875 847.2344970703126,879.6824951171876) "/>
    <line stroke="#000" fill="none" stroke-width="1.5" x1="882.78726" y1="773.43882" x2="833.13923" y2="773.43882" id="svg_234" stroke-linejoin="undefined" stroke-linecap="undefined" transform="rotate(28.299434661865234 857.9633178710939,773.4388427734375) "/>
    <line stroke="#000" fill="none" stroke-width="1.5" stroke-opacity="null" fill-opacity="null" x1="835.70328" y1="760.90534" x2="835.70328" y2="868.40534" id="svg_233" stroke-linejoin="undefined" stroke-linecap="undefined"/>
    <line stroke="#000" fill="none" stroke-width="1.5" stroke-opacity="null" fill-opacity="null" x1="858.12486" y1="901.76935" x2="858.12486" y2="853.56665" id="svg_232" stroke-linejoin="undefined" stroke-linecap="undefined" transform="rotate(-65.54739379882812 858.124938964844,877.6680297851564) "/>
    <line stroke="#000" fill="none" stroke-width="1.5" x1="931.98153" y1="836.46797" x2="828.13097" y2="836.46797" id="svg_231" stroke-linejoin="undefined" stroke-linecap="undefined" transform="rotate(89.84832763671875 880.0563354492186,836.4679565429689) "/>
    <text stroke="#000" fill="#000000" stroke-width="0" stroke-opacity="null" fill-opacity="null" x="879.40358" y="855.05143" id="svg_230" font-size="60" font-family="Helvetica, Arial, sans-serif" text-anchor="start" xml:space="preserve">BuildBook</text>
    <line stroke="#000" fill="none" stroke-opacity="null" fill-opacity="null" x1="828.80498" y1="785.82393" x2="828.80498" y2="783.4103" id="svg_229" stroke-linejoin="null" stroke-linecap="null" transform="rotate(29.13302993774414 828.8050537109377,784.6171264648439) "/>
    <line stroke="#000" fill="none" stroke-opacity="null" fill-opacity="null" x1="829.78044" y1="784.70629" x2="829.78044" y2="783.21889" id="svg_228" stroke-linejoin="null" stroke-linecap="null" transform="rotate(101.22868347167969 829.7804565429689,783.9625854492188) "/>
    <line stroke="#000" fill="none" stroke-opacity="null" fill-opacity="null" x1="832.69763" y1="786.13101" x2="832.69763" y2="783.78988" id="svg_227" stroke-linejoin="null" stroke-linecap="null" transform="rotate(127.05052947998047 832.6976928710938,784.96044921875) "/>
    <line stroke="#000" fill="none" stroke-opacity="null" fill-opacity="null" x1="832.98575" y1="785.13571" x2="832.98575" y2="783.04745" id="svg_226" stroke-linejoin="null" stroke-linecap="null" transform="rotate(101.22868347167969 832.9857788085938,784.0916137695312) "/>
    <line stroke="#000" fill="none" stroke-opacity="null" fill-opacity="null" x1="828.99248" y1="789.82393" x2="828.99248" y2="787.4103" id="svg_225" stroke-linejoin="null" stroke-linecap="null" transform="rotate(98.28878021240234 828.9924926757811,788.6171264648438) "/>
    <line stroke="#000" fill="none" stroke-opacity="null" fill-opacity="null" x1="829.96794" y1="788.70629" x2="829.96794" y2="787.21889" id="svg_224" stroke-linejoin="null" stroke-linecap="null" transform="rotate(175.83026123046875 829.9679565429686,787.9625854492188) "/>
    <line stroke="#000" fill="none" stroke-opacity="null" fill-opacity="null" x1="832.88513" y1="790.13101" x2="832.88513" y2="787.78988" id="svg_223" stroke-linejoin="null" stroke-linecap="null" transform="rotate(127.05052947998047 832.8851928710938,788.96044921875) "/>
    <line stroke="#000" fill="none" stroke-opacity="null" fill-opacity="null" x1="833.17325" y1="789.13571" x2="833.17325" y2="787.04745" id="svg_222" stroke-linejoin="null" stroke-linecap="null" transform="rotate(13.627680778503418 833.1733398437485,788.0916137695315) "/>
    <line stroke="#000" fill="none" stroke-opacity="null" fill-opacity="null" x1="828.49248" y1="794.01143" x2="828.49248" y2="791.5978" id="svg_221" stroke-linejoin="null" stroke-linecap="null" transform="rotate(-82.11155700683594 828.4925537109375,792.8046264648438) "/>
    <line stroke="#000" fill="none" stroke-opacity="null" fill-opacity="null" x1="829.46794" y1="792.89379" x2="829.46794" y2="791.40639" id="svg_220" stroke-linejoin="null" stroke-linecap="null" transform="rotate(101.22868347167969 829.4679565429688,792.1500854492188) "/>
    <line stroke="#000" fill="none" stroke-opacity="null" fill-opacity="null" x1="832.38513" y1="794.31851" x2="832.38513" y2="791.97738" id="svg_219" stroke-linejoin="null" stroke-linecap="null" transform="rotate(127.05052947998047 832.3851928710938,793.1479492187498) "/>
    <line stroke="#000" fill="none" stroke-opacity="null" fill-opacity="null" x1="832.6255" y1="793.26506" x2="832.6255" y2="791.27416" id="svg_218" stroke-linejoin="null" stroke-linecap="null" transform="rotate(64.82788848876953 832.6255493164062,792.2695922851564) "/>
    <line stroke="#000" fill="none" stroke-opacity="null" fill-opacity="null" x1="828.67998" y1="798.04268" x2="828.67998" y2="795.62905" id="svg_217" stroke-linejoin="null" stroke-linecap="null" transform="rotate(33.548545837402344 828.6799926757822,796.8358764648434) "/>
    <line stroke="#000" fill="none" stroke-opacity="null" fill-opacity="null" x1="829.65544" y1="796.89379" x2="829.65544" y2="795.40639" id="svg_216" stroke-linejoin="null" stroke-linecap="null" transform="rotate(-110.01331329345703 829.6554565429686,796.1500854492188) "/>
    <line stroke="#000" fill="none" stroke-opacity="null" fill-opacity="null" x1="832.57263" y1="798.31851" x2="832.57263" y2="795.97738" id="svg_215" stroke-linejoin="null" stroke-linecap="null" transform="rotate(127.05052947998047 832.5726928710938,797.14794921875) "/>
    <line stroke="#000" fill="none" stroke-opacity="null" fill-opacity="null" x1="832.86075" y1="797.32321" x2="832.86075" y2="795.23495" id="svg_214" stroke-linejoin="null" stroke-linecap="null" transform="rotate(-180 832.8607788085938,796.2791137695312) "/>
    <line stroke="#000" fill="none" stroke-opacity="null" fill-opacity="null" x1="816.24248" y1="801.57393" x2="816.24248" y2="799.1603" id="svg_213" stroke-linejoin="null" stroke-linecap="null" transform="rotate(29.13302993774414 816.2424926757815,800.3671264648436) "/>
    <line stroke="#000" fill="none" stroke-opacity="null" fill-opacity="null" x1="817.21794" y1="800.45629" x2="817.21794" y2="798.96889" id="svg_212" stroke-linejoin="null" stroke-linecap="null" transform="rotate(6.363105297088623 817.2180175781274,799.7125854492186) "/>
    <line stroke="#000" fill="none" stroke-opacity="null" fill-opacity="null" x1="820.13513" y1="801.88101" x2="820.13513" y2="799.53988" id="svg_211" stroke-linejoin="null" stroke-linecap="null" transform="rotate(-138.90818786621094 820.1351928710938,800.71044921875) "/>
    <line stroke="#000" fill="none" stroke-opacity="null" fill-opacity="null" x1="820.42325" y1="800.88571" x2="820.42325" y2="798.79745" id="svg_210" stroke-linejoin="null" stroke-linecap="null" transform="rotate(101.22868347167969 820.4232788085938,799.8416137695314) "/>
    <line stroke="#000" fill="none" stroke-opacity="null" fill-opacity="null" x1="816.42998" y1="805.63643" x2="816.42998" y2="803.2228" id="svg_209" stroke-linejoin="null" stroke-linecap="null" transform="rotate(98.28878021240234 816.4299926757811,804.4296264648438) "/>
    <line stroke="#000" fill="none" stroke-opacity="null" fill-opacity="null" x1="817.40544" y1="804.45629" x2="817.40544" y2="802.96889" id="svg_208" stroke-linejoin="null" stroke-linecap="null" transform="rotate(175.83026123046875 817.4054565429686,803.7125854492188) "/>
    <line stroke="#000" fill="none" stroke-opacity="null" fill-opacity="null" x1="820.32263" y1="805.88101" x2="820.32263" y2="803.53988" id="svg_207" stroke-linejoin="null" stroke-linecap="null" transform="rotate(171.27520751953125 820.32275390625,804.7104492187498) "/>
    <line stroke="#000" fill="none" stroke-opacity="null" fill-opacity="null" x1="820.61075" y1="804.88571" x2="820.61075" y2="802.79745" id="svg_206" stroke-linejoin="null" stroke-linecap="null" transform="rotate(117.23692321777344 820.6107788085936,803.8416137695314) "/>
    <line stroke="#000" fill="none" stroke-opacity="null" fill-opacity="null" x1="815.92998" y1="809.76143" x2="815.92998" y2="807.3478" id="svg_205" stroke-linejoin="null" stroke-linecap="null" transform="rotate(-142.02723693847656 815.9299926757811,808.5546264648436) "/>
    <line stroke="#000" fill="none" stroke-opacity="null" fill-opacity="null" x1="816.90544" y1="808.64379" x2="816.90544" y2="807.15639" id="svg_204" stroke-linejoin="null" stroke-linecap="null" transform="rotate(101.22868347167969 816.9054565429689,807.9000854492188) "/>
    <line stroke="#000" fill="none" stroke-opacity="null" fill-opacity="null" x1="819.82263" y1="810.06851" x2="819.82263" y2="807.72738" id="svg_203" stroke-linejoin="null" stroke-linecap="null" transform="rotate(127.05052947998047 819.8226928710939,808.8979492187499) "/>
    <line stroke="#000" fill="none" stroke-opacity="null" fill-opacity="null" x1="820.063" y1="809.01506" x2="820.063" y2="807.02416" id="svg_202" stroke-linejoin="null" stroke-linecap="null" transform="rotate(64.82788848876953 820.063049316406,808.0195922851564) "/>
    <line stroke="#000" fill="none" stroke-opacity="null" fill-opacity="null" x1="816.11748" y1="813.79268" x2="816.11748" y2="811.37905" id="svg_201" stroke-linejoin="null" stroke-linecap="null" transform="rotate(-162.02896118164062 816.1174926757812,812.5858764648438) "/>
    <line stroke="#000" fill="none" stroke-opacity="null" fill-opacity="null" x1="817.09294" y1="812.64379" x2="817.09294" y2="811.15639" id="svg_200" stroke-linejoin="null" stroke-linecap="null" transform="rotate(-110.01331329345703 817.0929565429686,811.9000854492186) "/>
    <line stroke="#000" fill="none" stroke-opacity="null" fill-opacity="null" x1="820.01013" y1="814.06851" x2="820.01013" y2="811.72738" id="svg_199" stroke-linejoin="null" stroke-linecap="null" transform="rotate(127.05052947998047 820.0101928710938,812.89794921875) "/>
    <line stroke="#000" fill="none" stroke-opacity="null" fill-opacity="null" x1="820.29825" y1="813.07321" x2="820.29825" y2="810.98495" id="svg_198" stroke-linejoin="null" stroke-linecap="null" transform="rotate(-85 820.2982788085938,812.0291137695312) "/>
    <line stroke="#000" fill="none" stroke-opacity="null" fill-opacity="null" x1="820.13513" y1="801.88101" x2="820.13513" y2="799.53988" id="svg_197" stroke-linejoin="null" stroke-linecap="null" transform="rotate(-138.90818786621094 820.1351928710938,800.71044921875) "/>
    <line stroke="#000" fill="none" stroke-opacity="null" fill-opacity="null" x1="820.42325" y1="800.88571" x2="820.42325" y2="798.79745" id="svg_196" stroke-linejoin="null" stroke-linecap="null" transform="rotate(101.22868347167969 820.4232788085938,799.8416137695314) "/>
    <line stroke="#000" fill="none" stroke-opacity="null" fill-opacity="null" x1="820.32263" y1="805.88101" x2="820.32263" y2="803.53988" id="svg_195" stroke-linejoin="null" stroke-linecap="null" transform="rotate(171.27520751953125 820.32275390625,804.7104492187498) "/>
    <line stroke="#000" fill="none" stroke-opacity="null" fill-opacity="null" x1="820.61075" y1="804.88571" x2="820.61075" y2="802.79745" id="svg_194" stroke-linejoin="null" stroke-linecap="null" transform="rotate(117.23692321777344 820.6107788085936,803.8416137695314) "/>
    <line stroke="#000" fill="none" stroke-opacity="null" fill-opacity="null" x1="819.82263" y1="810.06851" x2="819.82263" y2="807.72738" id="svg_193" stroke-linejoin="null" stroke-linecap="null" transform="rotate(127.05052947998047 819.8226928710939,808.8979492187499) "/>
    <line stroke="#000" fill="none" stroke-opacity="null" fill-opacity="null" x1="820.063" y1="809.01506" x2="820.063" y2="807.02416" id="svg_192" stroke-linejoin="null" stroke-linecap="null" transform="rotate(64.82788848876953 820.063049316406,808.0195922851564) "/>
    <line stroke="#000" fill="none" stroke-opacity="null" fill-opacity="null" x1="820.01013" y1="814.06851" x2="820.01013" y2="811.72738" id="svg_191" stroke-linejoin="null" stroke-linecap="null" transform="rotate(127.05052947998047 820.0101928710938,812.89794921875) "/>
    <line stroke="#000" fill="none" stroke-opacity="null" fill-opacity="null" x1="820.29825" y1="813.07321" x2="820.29825" y2="810.98495" id="svg_190" stroke-linejoin="null" stroke-linecap="null" transform="rotate(-85 820.2982788085938,812.0291137695312) "/>
    <line stroke="#000" fill="none" stroke-opacity="null" fill-opacity="null" x1="819.97888" y1="817.88101" x2="819.97888" y2="815.53988" id="svg_189" stroke-linejoin="null" stroke-linecap="null" transform="rotate(-138.90818786621094 819.9789428710939,816.71044921875) "/>
    <line stroke="#000" fill="none" stroke-opacity="null" fill-opacity="null" x1="820.267" y1="816.88571" x2="820.267" y2="814.79745" id="svg_188" stroke-linejoin="null" stroke-linecap="null" transform="rotate(101.22868347167969 820.2670288085939,815.8416137695311) "/>
    <line stroke="#000" fill="none" stroke-opacity="null" fill-opacity="null" x1="820.16638" y1="821.88101" x2="820.16638" y2="819.53988" id="svg_187" stroke-linejoin="null" stroke-linecap="null" transform="rotate(171.27520751953125 820.1664428710938,820.7104492187499) "/>
    <line stroke="#000" fill="none" stroke-opacity="null" fill-opacity="null" x1="820.4545" y1="820.88571" x2="820.4545" y2="818.79745" id="svg_186" stroke-linejoin="null" stroke-linecap="null" transform="rotate(117.23692321777344 820.4545288085935,819.8416137695314) "/>
    <line stroke="#000" fill="none" stroke-opacity="null" fill-opacity="null" x1="819.66638" y1="826.06851" x2="819.66638" y2="823.72738" id="svg_185" stroke-linejoin="null" stroke-linecap="null" transform="rotate(127.05052947998047 819.6664428710938,824.8979492187499) "/>
    <line stroke="#000" fill="none" stroke-opacity="null" fill-opacity="null" x1="819.90675" y1="825.01506" x2="819.90675" y2="823.02416" id="svg_184" stroke-linejoin="null" stroke-linecap="null" transform="rotate(64.82788848876953 819.9067993164061,824.0195922851564) "/>
    <line stroke="#000" fill="none" stroke-opacity="null" fill-opacity="null" x1="819.85388" y1="830.06851" x2="819.85388" y2="827.72738" id="svg_183" stroke-linejoin="null" stroke-linecap="null" transform="rotate(127.05052947998047 819.8539428710938,828.8979492187499) "/>
    <line stroke="#000" fill="none" stroke-opacity="null" fill-opacity="null" x1="820.142" y1="829.07321" x2="820.142" y2="826.98495" id="svg_182" stroke-linejoin="null" stroke-linecap="null" transform="rotate(-85 820.1420288085938,828.0291137695312) "/>
    <line stroke="#000" fill="none" stroke-opacity="null" fill-opacity="null" x1="819.97888" y1="817.88101" x2="819.97888" y2="815.53988" id="svg_181" stroke-linejoin="null" stroke-linecap="null" transform="rotate(-138.90818786621094 819.9789428710939,816.71044921875) "/>
    <line stroke="#000" fill="none" stroke-opacity="null" fill-opacity="null" x1="820.267" y1="816.88571" x2="820.267" y2="814.79745" id="svg_180" stroke-linejoin="null" stroke-linecap="null" transform="rotate(101.22868347167969 820.2670288085939,815.8416137695311) "/>
    <line stroke="#000" fill="none" stroke-opacity="null" fill-opacity="null" x1="820.16638" y1="821.88101" x2="820.16638" y2="819.53988" id="svg_179" stroke-linejoin="null" stroke-linecap="null" transform="rotate(171.27520751953125 820.1664428710938,820.7104492187499) "/>
    <line stroke="#000" fill="none" stroke-opacity="null" fill-opacity="null" x1="820.4545" y1="820.88571" x2="820.4545" y2="818.79745" id="svg_178" stroke-linejoin="null" stroke-linecap="null" transform="rotate(117.23692321777344 820.4545288085935,819.8416137695314) "/>
    <line stroke="#000" fill="none" stroke-opacity="null" fill-opacity="null" x1="819.66638" y1="826.06851" x2="819.66638" y2="823.72738" id="svg_177" stroke-linejoin="null" stroke-linecap="null" transform="rotate(127.05052947998047 819.6664428710938,824.8979492187499) "/>
    <line stroke="#000" fill="none" stroke-opacity="null" fill-opacity="null" x1="819.90675" y1="825.01506" x2="819.90675" y2="823.02416" id="svg_176" stroke-linejoin="null" stroke-linecap="null" transform="rotate(64.82788848876953 819.9067993164061,824.0195922851564) "/>
    <line stroke="#000" fill="none" stroke-opacity="null" fill-opacity="null" x1="819.85388" y1="830.06851" x2="819.85388" y2="827.72738" id="svg_175" stroke-linejoin="null" stroke-linecap="null" transform="rotate(127.05052947998047 819.8539428710938,828.8979492187499) "/>
    <line stroke="#000" fill="none" stroke-opacity="null" fill-opacity="null" x1="820.142" y1="829.07321" x2="820.142" y2="826.98495" id="svg_174" stroke-linejoin="null" stroke-linecap="null" transform="rotate(-85 820.1420288085938,828.0291137695312) "/>
    <line stroke="#000" fill="none" stroke-opacity="null" fill-opacity="null" x1="832.38513" y1="802.00601" x2="832.38513" y2="799.66488" id="svg_173" stroke-linejoin="null" stroke-linecap="null" transform="rotate(-138.90818786621094 832.3851928710939,800.8354492187501) "/>
    <line stroke="#000" fill="none" stroke-opacity="null" fill-opacity="null" x1="832.67325" y1="801.01071" x2="832.67325" y2="798.92245" id="svg_172" stroke-linejoin="null" stroke-linecap="null" transform="rotate(101.22868347167969 832.6732788085938,799.9666137695312) "/>
    <line stroke="#000" fill="none" stroke-opacity="null" fill-opacity="null" x1="832.57263" y1="806.00601" x2="832.57263" y2="803.66488" id="svg_171" stroke-linejoin="null" stroke-linecap="null" transform="rotate(171.27520751953125 832.5726928710938,804.8354492187499) "/>
    <line stroke="#000" fill="none" stroke-opacity="null" fill-opacity="null" x1="832.86075" y1="805.01071" x2="832.86075" y2="802.92245" id="svg_170" stroke-linejoin="null" stroke-linecap="null" transform="rotate(117.23692321777344 832.8607788085936,803.9666137695314) "/>
    <line stroke="#000" fill="none" stroke-opacity="null" fill-opacity="null" x1="832.07263" y1="810.19351" x2="832.07263" y2="807.85238" id="svg_169" stroke-linejoin="null" stroke-linecap="null" transform="rotate(127.05052947998047 832.0726928710939,809.0229492187499) "/>
    <line stroke="#000" fill="none" stroke-opacity="null" fill-opacity="null" x1="832.313" y1="809.14006" x2="832.313" y2="807.14916" id="svg_168" stroke-linejoin="null" stroke-linecap="null" transform="rotate(64.82788848876953 832.3130493164061,808.1445922851564) "/>
    <line stroke="#000" fill="none" stroke-opacity="null" fill-opacity="null" x1="832.38513" y1="802.00601" x2="832.38513" y2="799.66488" id="svg_167" stroke-linejoin="null" stroke-linecap="null" transform="rotate(-138.90818786621094 832.3851928710939,800.8354492187501) "/>
    <line stroke="#000" fill="none" stroke-opacity="null" fill-opacity="null" x1="832.67325" y1="801.01071" x2="832.67325" y2="798.92245" id="svg_166" stroke-linejoin="null" stroke-linecap="null" transform="rotate(101.22868347167969 832.6732788085938,799.9666137695312) "/>
    <line stroke="#000" fill="none" stroke-opacity="null" fill-opacity="null" x1="832.57263" y1="806.00601" x2="832.57263" y2="803.66488" id="svg_165" stroke-linejoin="null" stroke-linecap="null" transform="rotate(171.27520751953125 832.5726928710938,804.8354492187499) "/>
    <line stroke="#000" fill="none" stroke-opacity="null" fill-opacity="null" x1="832.86075" y1="805.01071" x2="832.86075" y2="802.92245" id="svg_164" stroke-linejoin="null" stroke-linecap="null" transform="rotate(117.23692321777344 832.8607788085936,803.9666137695314) "/>
    <line stroke="#000" fill="none" stroke-opacity="null" fill-opacity="null" x1="832.07263" y1="810.19351" x2="832.07263" y2="807.85238" id="svg_163" stroke-linejoin="null" stroke-linecap="null" transform="rotate(127.05052947998047 832.0726928710939,809.0229492187499) "/>
    <line stroke="#000" fill="none" stroke-opacity="null" fill-opacity="null" x1="832.313" y1="809.14006" x2="832.313" y2="807.14916" id="svg_162" stroke-linejoin="null" stroke-linecap="null" transform="rotate(64.82788848876953 832.3130493164061,808.1445922851564) "/>
    <line stroke="#000" fill="none" stroke-opacity="null" fill-opacity="null" x1="868.11748" y1="879.57393" x2="868.11748" y2="877.1603" id="svg_161" stroke-linejoin="null" stroke-linecap="null" transform="rotate(29.13302993774414 868.1174926757808,878.367126464844) "/>
    <line stroke="#000" fill="none" stroke-opacity="null" fill-opacity="null" x1="869.09294" y1="878.45629" x2="869.09294" y2="876.96889" id="svg_160" stroke-linejoin="null" stroke-linecap="null" transform="rotate(6.363105297088623 869.093017578124,877.7125854492192) "/>
    <line stroke="#000" fill="none" stroke-opacity="null" fill-opacity="null" x1="870.80498" y1="881.13643" x2="870.80498" y2="878.7228" id="svg_159" stroke-linejoin="null" stroke-linecap="null" transform="rotate(98.28878021240234 870.8049926757812,879.9296264648436) "/>
    <line stroke="#000" fill="none" stroke-opacity="null" fill-opacity="null" x1="871.78044" y1="879.95629" x2="871.78044" y2="878.46889" id="svg_158" stroke-linejoin="null" stroke-linecap="null" transform="rotate(175.83026123046875 871.7804565429688,879.2125854492188) "/>
    <line stroke="#000" fill="none" stroke-opacity="null" fill-opacity="null" x1="874.17998" y1="882.51143" x2="874.17998" y2="880.0978" id="svg_157" stroke-linejoin="null" stroke-linecap="null" transform="rotate(-142.02723693847656 874.1799926757812,881.3046264648436) "/>
    <line stroke="#000" fill="none" stroke-opacity="null" fill-opacity="null" x1="875.15544" y1="881.39379" x2="875.15544" y2="879.90639" id="svg_156" stroke-linejoin="null" stroke-linecap="null" transform="rotate(101.22868347167969 875.1554565429688,880.6500854492186) "/>
    <line stroke="#000" fill="none" stroke-opacity="null" fill-opacity="null" x1="876.77373" y1="884.07393" x2="876.77373" y2="881.6603" id="svg_155" stroke-linejoin="null" stroke-linecap="null" transform="rotate(-162.02896118164062 876.7737426757812,882.8671264648439) "/>
    <line stroke="#000" fill="none" stroke-opacity="null" fill-opacity="null" x1="877.34294" y1="883.80004" x2="877.34294" y2="882.31264" id="svg_154" stroke-linejoin="null" stroke-linecap="null" transform="rotate(-110.01331329345703 877.3429565429689,883.056335449219) "/>
    <line stroke="#000" fill="none" stroke-width="1.5" x1="875.50348" y1="787.77584" x2="840.78118" y2="787.77584" id="svg_153" stroke-linejoin="undefined" stroke-linecap="undefined" transform="rotate(28.299434661865234 858.1424560546876,787.7758178710938) "/>
    <path stroke="#009688" fill="none" stroke-width="1.5" stroke-opacity="null" fill-opacity="null" id="svg_152" d="m838.48288,764.90992c0,-0.0625 -0.13495,-0.10066 -0.3125,-0.1875c-0.20244,-0.09901 -0.25,-0.125 -0.25,0.125l-0.0625,0.3125l0,0.1875l0,0"/>
    <line stroke="#000" fill="none" stroke-width="1.5" x1="882.78726" y1="773.43882" x2="833.13923" y2="773.43882" id="svg_151" stroke-linejoin="undefined" stroke-linecap="undefined" transform="rotate(28.299434661865234 857.9633178710939,773.4388427734375) "/>
    <line stroke="#000" fill="none" stroke-width="1.5" x1="875.37848" y1="812.02584" x2="840.65618" y2="812.02584" id="svg_150" stroke-linejoin="undefined" stroke-linecap="undefined" transform="rotate(28.299434661865234 858.0173950195317,812.0258178710938) "/>
    <line stroke="#000" fill="none" stroke-width="1.5" stroke-opacity="null" fill-opacity="null" x1="843.20328" y1="780.15534" x2="843.20328" y2="804.40534" id="svg_149" stroke-linejoin="undefined" stroke-linecap="undefined"/>
    <line stroke="#000" fill="none" stroke-width="1.5" stroke-opacity="null" fill-opacity="null" x1="872.89078" y1="795.46784" x2="872.89078" y2="819.71784" id="svg_148" stroke-linejoin="undefined" stroke-linecap="undefined"/>
    <line stroke="#000" fill="none" stroke-width="1.5" stroke-opacity="null" fill-opacity="null" x1="843.20328" y1="780.15534" x2="843.20328" y2="804.40534" id="svg_147" stroke-linejoin="undefined" stroke-linecap="undefined"/>
    <line stroke="#000" fill="none" stroke-width="0.1" x1="874.55559" y1="804.69943" x2="841.62386" y2="804.69943" id="svg_146" stroke-linejoin="undefined" stroke-linecap="undefined" transform="rotate(28.299434661865234 858.0898437499997,804.6994628906251) "/>
    <line stroke="#000" fill="none" stroke-width="1.5" x1="812.9718" y1="772.44332" x2="810.02806" y2="772.44332" id="svg_145" stroke-linejoin="undefined" stroke-linecap="undefined" transform="rotate(14.294235229492188 811.4999999999993,772.4433593750001) "/>
    <line stroke="#000" fill="none" stroke-width="1.5" stroke-opacity="null" fill-opacity="null" x1="811.85472" y1="873.72262" x2="811.85472" y2="868.80315" id="svg_144" stroke-linejoin="undefined" stroke-linecap="undefined" transform="rotate(-76.64324951171875 811.8547973632814,871.2628784179689) "/>
    <line stroke="#000" fill="none" stroke-width="1.5" stroke-opacity="null" fill-opacity="null" x1="810.07828" y1="771.40534" x2="810.07828" y2="871.09284" id="svg_143" stroke-linejoin="undefined" stroke-linecap="undefined"/>
    <line stroke="#000" fill="none" stroke-width="1.5" stroke-opacity="null" fill-opacity="null" x1="883.41976" y1="857.96652" x2="1150.41975" y2="860.96652" id="svg_142" stroke-linejoin="undefined" stroke-linecap="undefined" transform="rotate(-0.5404760241508484 1016.9196777343574,859.4665527343741) "/>
    <line stroke="#000" fill="none" stroke-width="1.5" stroke-opacity="null" fill-opacity="null" x1="883.42206" y1="863.20562" x2="1046.72148" y2="866.20562" id="svg_141" stroke-linejoin="undefined" stroke-linecap="undefined" transform="rotate(-0.5404760241508484 965.0718383788859,864.7056274414059) "/>
    <path stroke="#000" fill="none" stroke-width="1.5" stroke-opacity="null" fill-opacity="null" d="m880.55939,785.43141c13.77083,-1.78387 27.54165,1.78387 41.31247,0l0,3.21097c-13.77082,1.78387 -27.54164,-1.78387 -41.31247,0l0,-3.21097z" id="svg_140"/>
    <path stroke="#000" fill="none" stroke-width="1.5" stroke-opacity="null" fill-opacity="null" d="m855.59945,783.87675l2.15023,10.03297l-0.88663,1.18405l2.70755,8.59606l-0.88623,1.43558l3.3471,14.39455l-5.67728,-11.03105l1.08286,-1.5319l-3.52744,-7.06549l1.264,-2.18347l-3.72447,-7.41201l4.15031,-6.41928l0,-0.00001z" id="svg_139" transform="rotate(-24.81129264831543 856.7402954101559,801.6983642578125) "/>
    <line stroke="#000" fill="none" stroke-width="0.1" x1="811.69427" y1="772.95001" x2="811.31927" y2="870.95001" id="svg_138" stroke-linejoin="null" stroke-linecap="null"/>
    <line stroke="#000" fill="none" stroke-width="0.1" x1="812.19427" y1="772.95001" x2="811.81927" y2="870.95001" id="svg_137" stroke-linejoin="null" stroke-linecap="null"/>
    <line stroke="#000" fill="none" stroke-width="0.1" x1="812.69427" y1="772.95001" x2="812.31927" y2="870.95001" id="svg_136" stroke-linejoin="null" stroke-linecap="null"/>
    <path stroke="#009688" fill="none" stroke-width="1.5" stroke-opacity="null" fill-opacity="null" id="svg_135" d="m853.88384,773.3309c0.0625,0 0.12668,-0.01436 0.1875,0c0.13602,0.03211 0.21715,0.13433 0.25,0.1875c0.07347,0.11888 0.125,0.125 0.1875,0.125c0.0625,0 0.14331,0.0183 0.1875,0.0625c0.04419,0.0442 0.0625,0.0625 0.0625,0.125l0.0625,0"/>
    <path stroke="#009688" fill="none" stroke-width="1.5" stroke-opacity="null" fill-opacity="null" id="svg_134" d="m829.60834,785.93822c0.03125,0 0.09375,0 0.15625,0.03125c0.125,0.0625 0.25471,0.07608 0.3125,0.15625c0.03654,0.0507 0.15118,0.08868 0.25,0.1875c0.04941,0.04941 0.125,0.09375 0.21875,0.15625c0.09375,0.0625 0.125,0.09375 0.125,0.09375c0,0 -0.21875,-0.125 -0.4375,-0.3125l-0.09375,-0.09375"/>
    <path stroke="#009688" fill="none" stroke-width="1.5" id="svg_133" d="m820.35788,775.97242c-0.0625,0 -0.278,0.15284 -0.6875,0.625c-0.52121,0.60096 -0.94847,0.94362 -0.875,1.0625c0.03285,0.05317 0.13554,0.05163 0.5625,-0.0625c0.65031,-0.17384 0.9375,-0.625 1.0625,-0.8125c0,0 0.22612,0.04018 0.625,0.25c0.29787,0.15669 0.37469,0.13116 0.3125,0.125c-0.31714,-0.0314 -0.95699,-0.30721 -1.5,-0.5c-0.1317,-0.04676 0.07082,0.03559 0.3125,0.125c0.13107,0.04848 0.1875,0.0625 0.25,0.125l0,0"/>
    <line stroke="#009688" fill="none" stroke-width="1.5" x1="839.17039" y1="765.90048" x2="837.29539" y2="763.96298" id="svg_132" stroke-linejoin="null" stroke-linecap="null"/>
    <line stroke="#009688" fill="none" stroke-width="1.5" x1="838.42039" y1="765.52548" x2="838.60789" y2="766.27548" id="svg_131" stroke-linejoin="null" stroke-linecap="null"/>
   </g>
   <text stroke="#000" xml:space="preserve" text-anchor="start" font-family="Helvetica, Arial, sans-serif" font-size="78" id="svg_266" y="130.48885" x="100.71719" stroke-opacity="null" stroke-width="0" fill="#ffffff">BuildBook</text>
  </g>
  <line stroke="#006057" stroke-linecap="null" stroke-linejoin="null" id="svg_269" y2="149.1474" x2="45.207" y1="20.39741" x1="45.207" stroke-width="null" fill="none"/>
  <line stroke="#006057" transform="rotate(-0.07789620757102966 29.64802932738435,87.95989990234382) " stroke-linecap="null" stroke-linejoin="null" id="svg_270" y2="149.77231" x2="29.64803" y1="26.1475" x1="29.64803" stroke-width="null" fill="none"/>
  <line stroke="#006057" transform="rotate(-0.07789620757102966 16.149219512940483,89.45993804931788) " stroke-linecap="null" stroke-linejoin="null" id="svg_271" y2="152.02239" x2="16.14922" y1="26.6475" x1="16.14922" stroke-width="null" fill="none"/>
  <line stroke="#006057" transform="rotate(-62.077239990234375 74.79034423828124,77.44439697265624) " stroke-linecap="null" stroke-linejoin="null" id="svg_272" y2="100.01975" x2="74.79035" y1="54.86904" x1="74.79035" stroke-width="null" fill="none"/>
  <line stroke="#006057" transform="rotate(0.043208591639995575 55.044357299831766,51.69432830809916) " stroke-linecap="null" stroke-linejoin="null" id="svg_273" y2="67.70716" x2="55.04435" y1="35.6815" x1="55.04435" stroke-width="null" fill="none"/>
  <line stroke="#006057" stroke-linecap="null" stroke-linejoin="null" id="svg_275" y2="149.1474" x2="45.207" y1="20.39741" x1="45.207" stroke-width="null" fill="none"/>
  <line stroke="#006057" stroke-linecap="null" stroke-linejoin="null" id="svg_276" y2="150.05362" x2="270.77257" y1="148.37836" x1="108.91676" fill-opacity="null" stroke-opacity="null" stroke-width="2" fill="none"/>
  <line transform="rotate(0.9667820334434509 310.2744750976562,30.798992156982038) " stroke="#006057" stroke-linecap="null" stroke-linejoin="null" id="svg_277" y2="43.6856" x2="310.5322" y1="17.91238" x1="310.01674" fill-opacity="null" stroke-opacity="null" stroke-width="6" fill="none"/>
  <line stroke="#006057" transform="rotate(0.9667820334434509 322.3970642089842,37.89221954345759) " stroke-linecap="null" stroke-linejoin="null" id="svg_278" y2="57.87306" x2="322.65478" y1="17.91137" x1="322.13932" fill-opacity="null" stroke-opacity="null" stroke-width="10" fill="none"/>
  <line stroke="#006057" transform="rotate(0.9667820334434509 338.75491333007767,46.012802124023345) " stroke-linecap="null" stroke-linejoin="null" id="svg_279" y2="74.1154" x2="339.01261" y1="17.9102" x1="338.49714" fill-opacity="null" stroke-opacity="null" stroke-width="14" fill="none"/>
 </g>
</svg>